<svg id="tracé" xmlns="http://www.w3.org/2000/svg" viewBox="0 0 1037.5 1037.5"><defs><style>.cls-1{fill:#0000a4;}.cls-2{fill:#fff;}.cls-3{fill:#0000c1;}.cls-4{fill:#0a003f;}.cls-5{fill:#0a0078;}.cls-6{fill:#00002f;}.cls-7{fill:#553390;}.cls-8{fill:#54f;}</style></defs><title>Logo SVG + clair</title><path class="cls-1" d="M959.75,1059C673.53,1059,441.5,827,441.5,540.75S673.53,22.5,959.75,22.5" transform="translate(-441 -22)"/><path class="cls-2" d="M959.75,1059.5A518.88,518.88,0,0,1,757.83,62.77,515.49,515.49,0,0,1,959.75,22v1C674.26,23,442,255.26,442,540.75S674.26,1058.5,959.75,1058.5Z" transform="translate(-441 -22)"/><path class="cls-3" d="M959.75,22.5C1246,22.5,1478,254.53,1478,540.75S1246,1059,959.75,1059" transform="translate(-441 -22)"/><path class="cls-2" d="M959.75,1059.5v-1c285.49,0,517.75-232.26,517.75-517.75S1245.24,23,959.75,23V22a518.88,518.88,0,0,1,201.92,996.73A515.49,515.49,0,0,1,959.75,1059.5Z" transform="translate(-441 -22)"/><polygon class="cls-4" points="162.89 405.51 489.75 217.69 489.75 97.27 61.21 345.03 62.19 346.72 59.67 346.72 59.67 690.78 62.07 690.78 61.21 692.26 489.75 940.23 489.75 819.81 162.89 631.78 162.89 405.51"/><path class="cls-5" d="M1141.25,403l-14,36.55L1017.92,724.15l-58.17,1.54V579.46l105.18-265.71Z" transform="translate(-441 -22)"/><path class="cls-6" d="M781.09,403l14,36.55,109.3,284.65,55.33,1.54V579.46L857.41,313.75Z" transform="translate(-441 -22)"/><path class="cls-7" d="M671.31,444.15v192.3L729,667.69V412.9Z" transform="translate(-441 -22)"/><path class="cls-8" d="M1248.67,444.24V636.46L1191,667.69V413Z" transform="translate(-441 -22)"/><polygon class="cls-5" points="875.61 405.51 548.75 217.69 548.75 97.27 977.29 345.03 976.32 346.72 978.83 346.72 978.83 690.78 976.43 690.78 977.29 692.26 548.75 940.23 548.75 819.81 875.61 631.78 875.61 405.51"/></svg>