<?xml version="1.0" encoding="utf-8"?>
<!-- Generator: Adobe Illustrator 22.1.0, SVG Export Plug-In . SVG Version: 6.00 Build 0)  -->
<svg version="1.1" xmlns="http://www.w3.org/2000/svg" xmlns:xlink="http://www.w3.org/1999/xlink" x="0px" y="0px"
	 viewBox="0 0 1920 1080" style="enable-background:new 0 0 1920 1080;" xml:space="preserve">
<style type="text/css">
	.st0{display:none;}
	.st1{fill:#000076;}
	.st2{fill:#FFFFFF;}
	.st3{fill:#0000C1;}
	.st4{fill:#0A003F;}
	.st5{fill:#0A0078;}
	.st6{fill:#00002F;}
	.st7{fill:#553390;}
	.st8{fill:#5544FF;}
</style>
<g id="reperes" class="st0">
</g>
<g id="reperes_centre_1_" class="st0">
</g>
<g id="tracé">
	<g>
		<path class="st1" d="M959.8,1059c-286.2,0-518.3-232-518.3-518.3s232-518.3,518.3-518.3"/>
		<path class="st2" d="M959.8,1059.5c-70,0-138-13.7-201.9-40.8c-61.8-26.1-117.3-63.5-164.9-111.2c-47.6-47.6-85-103.1-111.2-164.9
			c-27.1-64-40.8-131.9-40.8-201.9c0-70,13.7-138,40.8-201.9c26.1-61.8,63.5-117.3,111.2-164.9c47.6-47.6,103.1-85,164.9-111.2
			C821.8,35.7,889.7,22,959.8,22v1C674.3,23,442,255.3,442,540.8s232.3,517.8,517.8,517.8V1059.5z"/>
	</g>
	<g>
		<path class="st3" d="M959.8,22.5c286.2,0,518.3,232,518.3,518.3S1246,1059,959.8,1059"/>
		<path class="st2" d="M959.8,1059.5v-1c285.5,0,517.8-232.3,517.8-517.8S1245.2,23,959.8,23v-1c70,0,138,13.7,201.9,40.8
			c61.8,26.1,117.3,63.5,164.9,111.2c47.6,47.6,85,103.1,111.2,164.9c27.1,64,40.8,131.9,40.8,201.9c0,70-13.7,138-40.8,201.9
			c-26.1,61.8-63.5,117.3-111.2,164.9c-47.6,47.6-103.1,85-164.9,111.2C1097.7,1045.8,1029.8,1059.5,959.8,1059.5z"/>
	</g>
	<polygon class="st4" points="603.9,427.5 930.8,239.7 930.8,119.3 502.2,367 503.2,368.7 500.7,368.7 500.7,712.8 503.1,712.8 
		502.2,714.3 930.8,962.2 930.8,841.8 603.9,653.8 	"/>
	<path class="st5" d="M1141.2,402.9c-3.6,9.5-10.4,27-14,36.5c-38.5,100.2-70.8,184.4-109.3,284.7l-58.2,1.5V579.5l105.2-265.7
		L1141.2,402.9z"/>
	<path class="st6" d="M781.1,402.9c3.6,9.5,10.4,27,14,36.5c38.5,100.2,70.8,184.4,109.3,284.7l55.3,1.5V579.5L857.4,313.8
		L781.1,402.9z"/>
	<path class="st7" d="M671.3,444.1c0,5.7,0,16.2,0,21.9c0,60,0,110.4,0,170.4l57.7,31.2V412.9L671.3,444.1z"/>
	<path class="st8" d="M1248.7,444.2c0,5.7,0,16.2,0,21.9c0,60,0,110.4,0,170.4l-57.7,31.2V413L1248.7,444.2z"/>
	<polygon class="st5" points="1316.6,427.5 989.8,239.7 989.8,119.3 1418.3,367 1417.3,368.7 1419.8,368.7 1419.8,712.8 
		1417.4,712.8 1418.3,714.3 989.8,962.2 989.8,841.8 1316.6,653.8 	"/>
</g>
</svg>
