<?xml version="1.0" encoding="UTF-8"?>
<svg fill="#1e2d7a" width="300" height="300" version="1.1" viewBox="0 0 100 100" xmlns="http://www.w3.org/2000/svg">
 <g>
  <path d="m43.41 49.09c-0.45312 0.91016-0.22656 1.8164 0.22656 2.5 1.5898 2.0469 3.8633 2.9531 6.1367 3.1836 2.2734 0 4.7734-1.1367 6.3633-3.1836 0.45312-0.68359 0.68359-1.5898 0.22656-2.5-0.22656-0.90625-0.91016-1.3633-1.8164-1.3633h-9.0898c-0.91016 0-1.5938 0.45703-2.0469 1.3633z"/>
  <path d="m45.453 32.953c0 4.5469-6.8164 4.5469-6.8164 0 0-4.543 6.8164-4.543 6.8164 0"/>
  <path d="m61.363 32.953c0 4.5469-6.8164 4.5469-6.8164 0 0-4.543 6.8164-4.543 6.8164 0"/>
  <path d="m98.41 80.91c-0.68359-4.7734-4.0898-8.6367-8.6367-9.7734l-9.5469-2.2734c2.5-6.3633 3.8633-13.184 3.8633-20.227 0-8.1836-1.8164-15.684-4.7734-22.273 0-0.22656-1.8164-3.6367-2.5-5 0.23047 0 0.45703-0.45312 0.45703-0.91016v-9.0898h6.8164v14.316c-1.3633 0.68359-2.2734 2.2734-2.2734 3.8633 0 2.5 2.0469 4.5469 4.5469 4.5469s4.5469-2.0469 4.5469-4.5469c0-1.5898-0.91016-3.1836-2.2734-3.8633v-14.543c2.5-0.45312 4.5469-2.7266 4.5469-5.4531 0-3.1836-2.5-5.6836-5.6836-5.6836h-75c-3.1836 0-5.6836 2.5-5.6836 5.6836 0 3.1797 2.5 5.6797 5.6836 5.6797h10.227v9.0898c0 0.45312 0.22656 0.91016 0.45313 1.3633-0.91016 1.3633-1.5898 2.9531-2.2734 4.3164 0 0.22656-0.22656 0.45313-0.22656 0.45313-2.9531 6.5977-4.7695 14.098-4.7695 22.277 0 7.0469 1.3633 14.09 3.8633 20.227l-9.5469 2.2734c-4.5469 1.1367-8.1836 5-8.6367 9.7734l-1.5898 11.816c-0.22656 1.1367 0.45312 2.2734 1.5898 2.5 10.91 3.1836 29.547 4.5469 48.184 4.5469 18.637 0 37.5-1.5898 48.184-4.5469 1.1367-0.22656 1.8164-1.3633 1.5898-2.5zm-20.457-44.773c0.91016 4.0898 1.5898 8.1836 1.5898 12.727 0 6.5898-1.3633 13.184-3.6367 19.09l-5.9102-7.9531c-0.45312-0.45312-0.91016-0.91016-1.5898-0.91016h-0.22656v-3.4102c3.8633-5 6.3633-10.91 6.8164-17.5 1.1406-0.22656 2.2773-1.1328 2.957-2.043zm-5.2266-17.727l-6.1367 0.91016c-5.2266 0.67969-10.227 1.1328-15.453 1.1328h-2.5c-5 0-10.227-0.45312-15.453-1.1367l-5.9102-0.90625v-7.0469h45.453zm0 8.8633c-5 0.22656-9.5469-0.68359-13.184-2.5 2.5-0.22656 5.2266-0.45313 7.7266-0.91016l5.2266-0.68359c0.003906 1.3672 0.23047 2.7305 0.23047 4.0938zm-45.453 0c0-1.3633 0.22656-2.7266 0.45312-4.0898l5 0.68359c5.2266 0.68359 10.684 1.1367 15.91 1.1367h2.5 0.91016c4.3164 4.3164 11.59 6.8164 19.547 6.8164 1.1367 0 2.2734 0 3.4102-0.22656l-0.003906 0.22266c0 1.3633-0.91016 2.2734-2.2734 2.2734-1.3633 0-2.2734 0.91016-2.2734 2.2734 0 9.0898-4.5469 17.5-12.5 22.5l-1.1367 0.68359c-1.8164 1.1367-4.0898 1.8164-6.1367 1.8164h-1.1367c-2.2734 0-4.3164-0.68359-6.1367-1.8164l-1.3633-0.91016c-7.9531-4.7734-12.496-13.184-12.496-22.273 0-1.3633-0.91016-2.2734-2.2734-2.2734-1.3633 0-2.2734-0.91016-2.2734-2.2734v-2.2734c1.3633 0.003906 2.2734-0.90625 2.2734-2.2695zm44.543 42.727l-12.953 11.137-5.4531-4.0898 14.316-12.5zm-59.316-63.184c-0.68359 0-1.1367-0.45312-1.1367-1.1328 0-0.68359 0.45312-1.1367 1.1367-1.1367h75c0.45312 0 1.1367 0.45312 1.1367 1.1367 0 0.67969-0.68359 1.1328-1.1367 1.1328zm9.5469 29.32c0.68359 0.91016 1.8164 1.5898 2.9531 2.0469 0.45312 6.5898 2.7266 12.5 6.8164 17.5v3.4062h-0.22656c-0.68359 0-1.1367 0.45312-1.5898 0.91016l-5.9102 7.9531c-2.2734-5.9102-3.6367-12.273-3.6367-19.09 0-4.5469 0.68359-8.6367 1.5938-12.727zm10.227 28.637l14.09 12.5-5.4531 3.8633-12.953-11.137zm-27.5 26.816l1.1367-10c0.45312-2.7266 2.5-5.2266 5.2266-5.9102l12.953-2.9531 15.227 12.953c0.45312 0.45312 0.91016 0.45312 1.5898 0.45312 0.45312 0 0.91016-0.22656 1.3633-0.45312l5.457-3.8633v13.637c-16.363 0-32.727-1.3633-42.953-3.8633zm45.227-17.273l-13.637-11.816v-2.0469c0.91016 0.91016 2.0469 1.5898 3.1836 2.2734l1.3633 0.91016c2.5 1.5898 5.6836 2.5 8.6367 2.5h1.1367c2.9531 0 6.1367-0.91016 8.6367-2.5l1.3633-0.91016c1.1367-0.68359 2.2734-1.3633 3.1836-2.2734v2.0469zm2.2734 21.137v-13.637l5.4531 4.0898c0.45313 0.22656 0.91016 0.45312 1.3633 0.45312s1.1367-0.22656 1.3633-0.45312l15.227-12.953 12.953 2.9531c2.7266 0.68359 4.7734 2.9531 5.2266 5.6836l1.1367 10c-9.9961 2.5-26.359 3.8633-42.723 3.8633z"/>
 </g>
</svg>
