<svg id="Calque_2" data-name="Calque 2" xmlns="http://www.w3.org/2000/svg" xmlns:xlink="http://www.w3.org/1999/xlink" viewBox="0 0 907.35 607.11"><defs><style>.cls-1{stroke:#fff;stroke-miterlimit:10;stroke-width:4px;fill:url(#Dégradé_sans_nom_756);}.cls-2{fill:#d1d1d1;}</style><linearGradient id="Dégradé_sans_nom_756" x1="99.77" y1="384.25" x2="906.4" y2="384.25" gradientUnits="userSpaceOnUse"><stop offset="0" stop-color="#003cff"/><stop offset="0.28" stop-color="#1d33d2"/><stop offset="0.6" stop-color="#3b29a3"/><stop offset="0.86" stop-color="#4e2385"/><stop offset="1" stop-color="#55217a"/></linearGradient></defs><title>logo 1</title><path class="cls-1" d="M849.08,139.7,569.48,552.39V143.33H514.21v.33l-119.8.55q-77.66.36-127.82,10.82t-86.46,36.64q-36.28,26.18-58.48,79T99.78,394.93q.28,62.76,23.8,111.73t62.65,76.89q39.12,27.9,80.74,35.69t118.58,7.43L582,625.29,849.08,229V628.79H906.4V139.7ZM392.18,566.3q-84.19.38-124.82-12.78T200.5,496.77Q174.25,453.2,174,390.42q-.24-52.71,15.46-91.63t41.15-58.28Q256,221.15,293.08,213t100.57-8.44l38-.17,1.64,361.72Zm111.9-362.25,10.13,0V565.79h-8.48Z" transform="translate(-48.65 -80.89)"/><rect class="cls-2" x="473.66" y="205.66" width="57.32" height="907.35" transform="translate(1113.02 76.13) rotate(90)"/><rect class="cls-2" x="473.78" y="-343.89" width="57.32" height="906.88" transform="translate(563.34 -473.78) rotate(90)"/></svg>