<?xml version="1.0" encoding="UTF-8" standalone="no"?>
<svg
   xmlns:dc="http://purl.org/dc/elements/1.1/"
   xmlns:cc="http://creativecommons.org/ns#"
   xmlns:rdf="http://www.w3.org/1999/02/22-rdf-syntax-ns#"
   xmlns:svg="http://www.w3.org/2000/svg"
   xmlns="http://www.w3.org/2000/svg"
   xmlns:sodipodi="http://sodipodi.sourceforge.net/DTD/sodipodi-0.dtd"
   xmlns:inkscape="http://www.inkscape.org/namespaces/inkscape"
   width="2840.5574"
   height="1478.6431"
   viewBox="0 0 290.87307 151.36606"
   preserveAspectRatio="xMinYMin meet"
   id="svg5381"
   version="1.1"
   inkscape:version="0.91 r13725"
   sodipodi:docname="php.svg">
  <metadata
     id="metadata5393">
    <rdf:RDF>
      <cc:Work
         rdf:about="">
        <dc:format>image/svg+xml</dc:format>
        <dc:type
           rdf:resource="http://purl.org/dc/dcmitype/StillImage" />
        <dc:title></dc:title>
      </cc:Work>
    </rdf:RDF>
  </metadata>
  <defs
     id="defs5391" />
  <sodipodi:namedview
     pagecolor="#ffffff"
     bordercolor="#666666"
     borderopacity="1"
     objecttolerance="10"
     gridtolerance="10"
     guidetolerance="10"
     inkscape:pageopacity="0"
     inkscape:pageshadow="2"
     inkscape:window-width="1451"
     inkscape:window-height="722"
     id="namedview5389"
     showgrid="false"
     fit-margin-top="0"
     fit-margin-left="0"
     fit-margin-right="0"
     fit-margin-bottom="0"
     inkscape:zoom="0.1292"
     inkscape:cx="1420.2787"
     inkscape:cy="735.50513"
     inkscape:window-x="0"
     inkscape:window-y="27"
     inkscape:window-maximized="0"
     inkscape:current-layer="svg5381" />
  <ellipse
     cx="145.43654"
     cy="75.706528"
     rx="145.43654"
     ry="75.706528"
     id="ellipse5937"
     style="fill:#ffffff;fill-rule:evenodd" />
  <ellipse
     style="fill:#8993be;fill-rule:evenodd"
     id="ellipse5385"
     ry="66.629997"
     rx="128"
     cy="75.706528"
     cx="145.43654" />
  <path
     style="fill:#232531;fill-rule:evenodd"
     inkscape:connector-curvature="0"
     id="path5387"
     d="m 53.381539,115.15853 14.028,-71.014 32.437,0 c 14.027001,0.877 21.041001,7.89 21.041001,20.165 0,21.041 -16.657,33.315 -31.562001,32.438 l -15.779,0 -3.507,18.411 -16.658,0 z m 23.671,-31.561 4.384,-26.302 11.397,0 c 6.137,0 10.520001,2.63 10.520001,7.89 -0.876,14.905 -7.890001,17.535 -15.780001,18.412 l -10.52,0 z m 40.576001,13.15 14.027,-71.013 16.658,0 -3.507,18.41 15.78,0 c 14.028,0.877 19.288,7.89 17.535,16.658 l -6.137,35.945 -17.534,0 6.137,-32.438 c 0.876,-4.384 0.876,-7.014 -5.26,-7.014 l -13.151,0 -7.89,39.452 -16.658,0 z m 53.233,18.411 14.027,-71.014 32.438,0 c 14.028,0.877 21.042,7.89 21.042,20.165 0,21.041 -16.658,33.315 -31.562,32.438 l -15.781,0 -3.507,18.411 -16.657,0 z m 23.67,-31.561 4.384,-26.302 11.398,0 c 6.137,0 10.52,2.63 10.52,7.89 -0.876,14.905 -7.89,17.535 -15.78,18.412 l -10.521,0 z" />
</svg>
