<?xml version="1.0" encoding="UTF-8"?>
<svg fill="#1e2d7a" width="300" height="300" version="1.1" viewBox="0 0 100 100" xmlns="http://www.w3.org/2000/svg">
 <g>
  <path d="m50 0c-16.082 0-29.168 13.082-29.168 29.168 0 16.082 13.082 29.168 29.168 29.168 16.082 0 29.168-13.082 29.168-29.168 0-16.082-13.082-29.168-29.168-29.168zm0 4.168c13.832 0 25 11.168 25 25s-11.168 25-25 25-25-11.168-25-25 11.168-25 25-25z"/>
  <path d="m35.418 18.75c-3.4258 0-6.25 2.8242-6.25 6.25v2.082c0 3.4258 2.8242 6.25 6.25 6.25h6.25c3.4258 0 6.25-2.8242 6.25-6.25v-2.082c0-3.4258-2.8242-6.25-6.25-6.25zm0 4.168h6.25c1.1914 0 2.082 0.89453 2.082 2.082v2.082c0 1.1914-0.89453 2.082-2.082 2.082h-6.25c-1.1914 0-2.082-0.89453-2.082-2.082v-2.082c0-1.1914 0.89453-2.082 2.082-2.082z"/>
  <path d="m58.332 18.75c-3.4258 0-6.25 2.8242-6.25 6.25v2.082c0 3.4258 2.8242 6.25 6.25 6.25h6.25c3.4258 0 6.25-2.8242 6.25-6.25v-2.082c0-3.4258-2.8242-6.25-6.25-6.25zm0 4.168h6.25c1.1914 0 2.082 0.89453 2.082 2.082v2.082c0 1.1914-0.89453 2.082-2.082 2.082h-6.25c-1.1914 0-2.082-0.89453-2.082-2.082v-2.082c0-1.1914 0.89453-2.082 2.082-2.082z"/>
  <path d="m45.832 22.914v4.168h8.332v-4.168z" fill-rule="evenodd"/>
  <path d="m22.871 18.754c-0.96094 0.023438-1.7852 0.69922-1.9883 1.6406-0.20312 0.94141 0.26172 1.8984 1.1289 2.3164l8.2812 4.1367v0.003906c0.49609 0.26563 1.0781 0.31641 1.6172 0.14844 0.53516-0.17188 0.98047-0.55078 1.2305-1.0547 0.25-0.50391 0.28906-1.0898 0.10156-1.6211-0.18359-0.53125-0.57813-0.96484-1.0898-1.1992l-8.2812-4.1367v-0.003906c-0.30859-0.16016-0.65234-0.23828-1-0.23047z" fill-rule="evenodd"/>
  <path d="m77.066 18.754c-0.32812 0.003906-0.64844 0.082032-0.9375 0.23047l-8.2812 4.1367v0.003906c-0.51172 0.23438-0.90625 0.66797-1.0898 1.1992-0.1875 0.53125-0.14844 1.1172 0.10156 1.6211 0.25 0.50391 0.69531 0.88281 1.2305 1.0547 0.53906 0.16797 1.1211 0.11719 1.6172-0.14844l8.2812-4.1367v-0.003906c0.875-0.42188 1.3398-1.3984 1.1211-2.3438-0.22266-0.94922-1.0703-1.6211-2.043-1.6133z" fill-rule="evenodd"/>
  <path d="m26.98 58.336c-0.28906 0.015624-0.57031 0.085937-0.82812 0.21484l-25 12.5c-0.70703 0.35547-1.1523 1.0781-1.1523 1.8672v25c0 1.1484 0.93359 2.082 2.082 2.082h95.836c1.1484 0 2.082-0.93359 2.082-2.082v-25c0-0.78906-0.44531-1.5117-1.1523-1.8633l-25-12.5c-0.98828-0.49609-2.1914-0.13281-2.7422 0.82812l-13.652 23.895-1.1562-8.082 1.9297-5.7852c0.25-0.75 0.054688-1.5742-0.50391-2.1328l-6.25-6.25c-0.8125-0.8125-2.1328-0.8125-2.9453 0l-6.25 6.25c-0.55859 0.55859-0.75391 1.3828-0.50391 2.1328l1.9297 5.7852-1.1562 8.082-13.652-23.895c-0.39062-0.67969-1.1289-1.0859-1.9141-1.0469zm-0.72656 4.8242l15.688 27.453-0.003906 0.003907c0.44141 0.77344 1.3281 1.1836 2.2031 1.0156 0.875-0.16797 1.5469-0.87109 1.6719-1.7539l2.082-14.582c0.046875-0.32031 0.019531-0.64453-0.082031-0.95312l-1.6758-5.0312 3.8672-3.8711 3.8672 3.8711-1.6758 5.0312h-0.007812c-0.10156 0.30859-0.12891 0.63281-0.082031 0.95312l2.082 14.582c0.125 0.88281 0.79688 1.5859 1.6719 1.7539 0.875 0.16797 1.7617-0.24219 2.2031-1.0156l15.688-27.453 22.086 11.043v21.625h-91.668v-21.625l22.086-11.043z" fill-rule="evenodd"/>
  <path d="m62.383 39.586c-0.61328 0.035156-1.1836 0.33984-1.5508 0.83203-2.6562 3.4336-6.6289 5.4102-10.824 5.4141-4.1953 0-8.1758-1.9492-10.844-5.375-0.70703-0.91016-2.0156-1.0703-2.9258-0.36719-0.91016 0.70703-1.0742 2.0195-0.36719 2.9258 3.4336 4.4102 8.6406 6.9922 14.145 6.9805 5.5039 0 10.699-2.6133 14.117-7.0352v0.003906c0.51172-0.64453 0.59766-1.5273 0.21875-2.2578-0.37891-0.72656-1.1484-1.168-1.9688-1.1211z"/>
 </g>
</svg>
