<?xml version="1.0" encoding="UTF-8" standalone="no"?>
<!DOCTYPE svg PUBLIC "-//W3C//DTD SVG 1.1//EN" "http://www.w3.org/Graphics/SVG/1.1/DTD/svg11.dtd">
<svg width="100%" height="100%" viewBox="0 0 236 50" version="1.1" xmlns="http://www.w3.org/2000/svg" xmlns:xlink="http://www.w3.org/1999/xlink" xml:space="preserve" xmlns:serif="http://www.serif.com/" style="fill-rule:evenodd;clip-rule:evenodd;stroke-linejoin:round;stroke-miterlimit:1.41421;">
    <g>
        <path d="M4.48,14.97L6,14.97C6.773,14.97 7.363,14.807 7.77,14.48C8.177,14.153 8.38,13.67 8.38,13.03C8.38,12.39 8.177,11.943 7.77,11.69C7.363,11.437 6.773,11.31 6,11.31L4.48,11.31L4.48,14.97ZM8.6,22.01L6.1,17.31L4.48,17.31L4.48,22.01L1.54,22.01L1.54,8.97L6.24,8.97C6.933,8.97 7.583,9.037 8.19,9.17C8.797,9.303 9.327,9.527 9.78,9.84C10.233,10.153 10.593,10.57 10.86,11.09C11.127,11.61 11.26,12.257 11.26,13.03C11.26,13.99 11.05,14.78 10.63,15.4C10.21,16.02 9.647,16.483 8.94,16.79L11.9,22.01L8.6,22.01Z" style="fill:url(#_Linear1);fill-rule:nonzero;"/>
        <path d="M17.8,22.25C17.093,22.25 16.433,22.133 15.82,21.9C15.207,21.667 14.673,21.327 14.22,20.88C13.767,20.433 13.413,19.89 13.16,19.25C12.907,18.61 12.78,17.877 12.78,17.05C12.78,16.25 12.913,15.527 13.18,14.88C13.447,14.233 13.797,13.687 14.23,13.24C14.663,12.793 15.16,12.45 15.72,12.21C16.28,11.97 16.86,11.85 17.46,11.85C18.167,11.85 18.783,11.97 19.31,12.21C19.837,12.45 20.277,12.783 20.63,13.21C20.983,13.637 21.247,14.14 21.42,14.72C21.593,15.3 21.68,15.93 21.68,16.61C21.68,16.877 21.667,17.13 21.64,17.37C21.613,17.61 21.587,17.79 21.56,17.91L15.62,17.91C15.753,18.63 16.05,19.16 16.51,19.5C16.97,19.84 17.533,20.01 18.2,20.01C18.907,20.01 19.62,19.79 20.34,19.35L21.32,21.13C20.813,21.477 20.25,21.75 19.63,21.95C19.01,22.15 18.4,22.25 17.8,22.25ZM19.18,15.97C19.18,15.41 19.053,14.957 18.8,14.61C18.547,14.263 18.12,14.09 17.52,14.09C17.053,14.09 16.643,14.243 16.29,14.55C15.937,14.857 15.707,15.33 15.6,15.97L19.18,15.97Z" style="fill:url(#_Linear2);fill-rule:nonzero;"/>
        <path d="M23.14,25.93C22.727,25.93 22.383,25.903 22.11,25.85C21.837,25.797 21.6,25.73 21.4,25.65L21.92,23.49C22.053,23.53 22.18,23.563 22.3,23.59C22.42,23.617 22.553,23.63 22.7,23.63C23.087,23.63 23.357,23.503 23.51,23.25C23.663,22.997 23.74,22.59 23.74,22.03L23.74,12.09L26.68,12.09L26.68,21.95C26.68,22.497 26.623,23.01 26.51,23.49C26.397,23.97 26.203,24.39 25.93,24.75C25.657,25.11 25.293,25.397 24.84,25.61C24.387,25.823 23.82,25.93 23.14,25.93ZM25.22,10.63C24.727,10.63 24.32,10.487 24,10.2C23.68,9.913 23.52,9.543 23.52,9.09C23.52,8.637 23.68,8.27 24,7.99C24.32,7.71 24.727,7.57 25.22,7.57C25.713,7.57 26.12,7.71 26.44,7.99C26.76,8.27 26.92,8.637 26.92,9.09C26.92,9.543 26.76,9.913 26.44,10.2C26.12,10.487 25.713,10.63 25.22,10.63Z" style="fill:url(#_Linear3);fill-rule:nonzero;"/>
        <path d="M33.54,22.25C32.913,22.25 32.307,22.133 31.72,21.9C31.133,21.667 30.617,21.33 30.17,20.89C29.723,20.45 29.367,19.907 29.1,19.26C28.833,18.613 28.7,17.877 28.7,17.05C28.7,16.223 28.833,15.487 29.1,14.84C29.367,14.193 29.723,13.65 30.17,13.21C30.617,12.77 31.133,12.433 31.72,12.2C32.307,11.967 32.913,11.85 33.54,11.85C34.167,11.85 34.77,11.967 35.35,12.2C35.93,12.433 36.443,12.77 36.89,13.21C37.337,13.65 37.693,14.193 37.96,14.84C38.227,15.487 38.36,16.223 38.36,17.05C38.36,17.877 38.227,18.613 37.96,19.26C37.693,19.907 37.337,20.45 36.89,20.89C36.443,21.33 35.93,21.667 35.35,21.9C34.77,22.133 34.167,22.25 33.54,22.25ZM33.54,19.87C34.14,19.87 34.593,19.617 34.9,19.11C35.207,18.603 35.36,17.917 35.36,17.05C35.36,16.183 35.207,15.497 34.9,14.99C34.593,14.483 34.14,14.23 33.54,14.23C32.927,14.23 32.47,14.483 32.17,14.99C31.87,15.497 31.72,16.183 31.72,17.05C31.72,17.917 31.87,18.603 32.17,19.11C32.47,19.617 32.927,19.87 33.54,19.87Z" style="fill:url(#_Linear4);fill-rule:nonzero;"/>
        <path d="M40.38,12.09L43.32,12.09L43.32,22.01L40.38,22.01L40.38,12.09ZM41.84,10.63C41.347,10.63 40.94,10.487 40.62,10.2C40.3,9.913 40.14,9.543 40.14,9.09C40.14,8.637 40.3,8.27 40.62,7.99C40.94,7.71 41.347,7.57 41.84,7.57C42.347,7.57 42.757,7.71 43.07,7.99C43.383,8.27 43.54,8.637 43.54,9.09C43.54,9.543 43.383,9.913 43.07,10.2C42.757,10.487 42.347,10.63 41.84,10.63Z" style="fill:url(#_Linear5);fill-rule:nonzero;"/>
        <path d="M49.44,26.23C48.853,26.23 48.31,26.18 47.81,26.08C47.31,25.98 46.87,25.83 46.49,25.63C46.11,25.43 45.813,25.17 45.6,24.85C45.387,24.53 45.28,24.15 45.28,23.71C45.28,22.91 45.753,22.243 46.7,21.71L46.7,21.63C46.433,21.457 46.213,21.237 46.04,20.97C45.867,20.703 45.78,20.363 45.78,19.95C45.78,19.59 45.887,19.247 46.1,18.92C46.313,18.593 46.58,18.317 46.9,18.09L46.9,18.01C46.553,17.77 46.243,17.427 45.97,16.98C45.697,16.533 45.56,16.017 45.56,15.43C45.56,14.83 45.673,14.307 45.9,13.86C46.127,13.413 46.43,13.04 46.81,12.74C47.19,12.44 47.627,12.217 48.12,12.07C48.613,11.923 49.127,11.85 49.66,11.85C50.247,11.85 50.76,11.93 51.2,12.09L54.82,12.09L54.82,14.23L53.24,14.23C53.333,14.377 53.41,14.563 53.47,14.79C53.53,15.017 53.56,15.263 53.56,15.53C53.56,16.103 53.46,16.6 53.26,17.02C53.06,17.44 52.783,17.787 52.43,18.06C52.077,18.333 51.663,18.537 51.19,18.67C50.717,18.803 50.207,18.87 49.66,18.87C49.273,18.87 48.873,18.803 48.46,18.67C48.327,18.777 48.233,18.883 48.18,18.99C48.127,19.097 48.1,19.237 48.1,19.41C48.1,19.663 48.21,19.85 48.43,19.97C48.65,20.09 49.04,20.15 49.6,20.15L51.2,20.15C52.427,20.15 53.363,20.347 54.01,20.74C54.657,21.133 54.98,21.777 54.98,22.67C54.98,23.19 54.85,23.667 54.59,24.1C54.33,24.533 53.96,24.907 53.48,25.22C53,25.533 52.42,25.78 51.74,25.96C51.06,26.14 50.293,26.23 49.44,26.23ZM49.66,17.09C50.047,17.09 50.37,16.953 50.63,16.68C50.89,16.407 51.02,15.99 51.02,15.43C51.02,14.91 50.89,14.513 50.63,14.24C50.37,13.967 50.047,13.83 49.66,13.83C49.273,13.83 48.95,13.963 48.69,14.23C48.43,14.497 48.3,14.897 48.3,15.43C48.3,15.99 48.43,16.407 48.69,16.68C48.95,16.953 49.273,17.09 49.66,17.09ZM49.9,24.39C50.567,24.39 51.113,24.273 51.54,24.04C51.967,23.807 52.18,23.517 52.18,23.17C52.18,22.863 52.05,22.657 51.79,22.55C51.53,22.443 51.153,22.39 50.66,22.39L49.64,22.39C49.293,22.39 49.013,22.38 48.8,22.36C48.587,22.34 48.4,22.31 48.24,22.27C47.88,22.59 47.7,22.917 47.7,23.25C47.7,23.623 47.9,23.907 48.3,24.1C48.7,24.293 49.233,24.39 49.9,24.39Z" style="fill:url(#_Linear6);fill-rule:nonzero;"/>
        <path d="M56.58,12.09L58.98,12.09L59.18,13.35L59.26,13.35C59.687,12.95 60.153,12.6 60.66,12.3C61.167,12 61.76,11.85 62.44,11.85C63.52,11.85 64.303,12.203 64.79,12.91C65.277,13.617 65.52,14.597 65.52,15.85L65.52,22.01L62.58,22.01L62.58,16.23C62.58,15.51 62.483,15.017 62.29,14.75C62.097,14.483 61.787,14.35 61.36,14.35C60.987,14.35 60.667,14.433 60.4,14.6C60.133,14.767 59.84,15.003 59.52,15.31L59.52,22.01L56.58,22.01L56.58,12.09Z" style="fill:url(#_Linear7);fill-rule:nonzero;"/>
        <path d="M72.46,22.25C71.753,22.25 71.093,22.133 70.48,21.9C69.867,21.667 69.333,21.327 68.88,20.88C68.427,20.433 68.073,19.89 67.82,19.25C67.567,18.61 67.44,17.877 67.44,17.05C67.44,16.25 67.573,15.527 67.84,14.88C68.107,14.233 68.457,13.687 68.89,13.24C69.323,12.793 69.82,12.45 70.38,12.21C70.94,11.97 71.52,11.85 72.12,11.85C72.827,11.85 73.443,11.97 73.97,12.21C74.497,12.45 74.937,12.783 75.29,13.21C75.643,13.637 75.907,14.14 76.08,14.72C76.253,15.3 76.34,15.93 76.34,16.61C76.34,16.877 76.327,17.13 76.3,17.37C76.273,17.61 76.247,17.79 76.22,17.91L70.28,17.91C70.413,18.63 70.71,19.16 71.17,19.5C71.63,19.84 72.193,20.01 72.86,20.01C73.567,20.01 74.28,19.79 75,19.35L75.98,21.13C75.473,21.477 74.91,21.75 74.29,21.95C73.67,22.15 73.06,22.25 72.46,22.25ZM73.84,15.97C73.84,15.41 73.713,14.957 73.46,14.61C73.207,14.263 72.78,14.09 72.18,14.09C71.713,14.09 71.303,14.243 70.95,14.55C70.597,14.857 70.367,15.33 70.26,15.97L73.84,15.97Z" style="fill:url(#_Linear8);fill-rule:nonzero;"/>
        <path d="M77.7,20.43L81.86,14.39L78.16,14.39L78.16,12.09L85.52,12.09L85.52,13.65L81.36,19.71L85.66,19.71L85.66,22.01L77.7,22.01L77.7,20.43Z" style="fill:url(#_Linear9);fill-rule:nonzero;"/>
        <path d="M94.14,22.25C93.633,22.25 93.207,22.17 92.86,22.01C92.513,21.85 92.237,21.627 92.03,21.34C91.823,21.053 91.673,20.707 91.58,20.3C91.487,19.893 91.44,19.437 91.44,18.93L91.44,7.99L94.38,7.99L94.38,19.05C94.38,19.357 94.437,19.57 94.55,19.69C94.663,19.81 94.78,19.87 94.9,19.87C94.967,19.87 95.023,19.87 95.07,19.87C95.117,19.87 95.18,19.857 95.26,19.83L95.62,22.01C95.46,22.077 95.257,22.133 95.01,22.18C94.763,22.227 94.473,22.25 94.14,22.25Z" style="fill:url(#_Linear10);fill-rule:nonzero;"/>
        <path d="M99.66,22.25C99.207,22.25 98.797,22.173 98.43,22.02C98.063,21.867 97.753,21.653 97.5,21.38C97.247,21.107 97.05,20.79 96.91,20.43C96.77,20.07 96.7,19.677 96.7,19.25C96.7,18.21 97.14,17.397 98.02,16.81C98.9,16.223 100.32,15.83 102.28,15.63C102.253,15.19 102.123,14.84 101.89,14.58C101.657,14.32 101.267,14.19 100.72,14.19C100.293,14.19 99.87,14.27 99.45,14.43C99.03,14.59 98.58,14.81 98.1,15.09L97.04,13.15C97.68,12.763 98.35,12.45 99.05,12.21C99.75,11.97 100.493,11.85 101.28,11.85C102.56,11.85 103.537,12.213 104.21,12.94C104.883,13.667 105.22,14.797 105.22,16.33L105.22,22.01L102.82,22.01L102.62,20.99L102.54,20.99C102.113,21.363 101.667,21.667 101.2,21.9C100.733,22.133 100.22,22.25 99.66,22.25ZM100.66,19.97C100.993,19.97 101.28,19.897 101.52,19.75C101.76,19.603 102.013,19.397 102.28,19.13L102.28,17.39C101.24,17.537 100.52,17.75 100.12,18.03C99.72,18.31 99.52,18.643 99.52,19.03C99.52,19.35 99.623,19.587 99.83,19.74C100.037,19.893 100.313,19.97 100.66,19.97Z" style="fill:url(#_Linear11);fill-rule:nonzero;"/>
        <path d="M111.7,12.09L114.1,12.09L114.3,13.07L114.38,13.07C114.767,12.723 115.203,12.433 115.69,12.2C116.177,11.967 116.68,11.85 117.2,11.85C117.8,11.85 118.34,11.97 118.82,12.21C119.3,12.45 119.707,12.79 120.04,13.23C120.373,13.67 120.63,14.2 120.81,14.82C120.99,15.44 121.08,16.13 121.08,16.89C121.08,17.743 120.963,18.5 120.73,19.16C120.497,19.82 120.183,20.38 119.79,20.84C119.397,21.3 118.95,21.65 118.45,21.89C117.95,22.13 117.433,22.25 116.9,22.25C116.473,22.25 116.06,22.16 115.66,21.98C115.26,21.8 114.887,21.543 114.54,21.21L114.64,22.79L114.64,25.69L111.7,25.69L111.7,12.09ZM116.22,19.85C116.727,19.85 117.16,19.62 117.52,19.16C117.88,18.7 118.06,17.957 118.06,16.93C118.06,15.143 117.487,14.25 116.34,14.25C115.767,14.25 115.2,14.55 114.64,15.15L114.64,19.21C114.907,19.45 115.173,19.617 115.44,19.71C115.707,19.803 115.967,19.85 116.22,19.85Z" style="fill:url(#_Linear12);fill-rule:nonzero;"/>
        <path d="M125.86,22.25C125.353,22.25 124.927,22.17 124.58,22.01C124.233,21.85 123.957,21.627 123.75,21.34C123.543,21.053 123.393,20.707 123.3,20.3C123.207,19.893 123.16,19.437 123.16,18.93L123.16,7.99L126.1,7.99L126.1,19.05C126.1,19.357 126.157,19.57 126.27,19.69C126.383,19.81 126.5,19.87 126.62,19.87C126.687,19.87 126.743,19.87 126.79,19.87C126.837,19.87 126.9,19.857 126.98,19.83L127.34,22.01C127.18,22.077 126.977,22.133 126.73,22.18C126.483,22.227 126.193,22.25 125.86,22.25Z" style="fill:url(#_Linear13);fill-rule:nonzero;"/>
        <path d="M131.38,22.25C130.927,22.25 130.517,22.173 130.15,22.02C129.783,21.867 129.473,21.653 129.22,21.38C128.967,21.107 128.77,20.79 128.63,20.43C128.49,20.07 128.42,19.677 128.42,19.25C128.42,18.21 128.86,17.397 129.74,16.81C130.62,16.223 132.04,15.83 134,15.63C133.973,15.19 133.843,14.84 133.61,14.58C133.377,14.32 132.987,14.19 132.44,14.19C132.013,14.19 131.59,14.27 131.17,14.43C130.75,14.59 130.3,14.81 129.82,15.09L128.76,13.15C129.4,12.763 130.07,12.45 130.77,12.21C131.47,11.97 132.213,11.85 133,11.85C134.28,11.85 135.257,12.213 135.93,12.94C136.603,13.667 136.94,14.797 136.94,16.33L136.94,22.01L134.54,22.01L134.34,20.99L134.26,20.99C133.833,21.363 133.387,21.667 132.92,21.9C132.453,22.133 131.94,22.25 131.38,22.25ZM132.38,19.97C132.713,19.97 133,19.897 133.24,19.75C133.48,19.603 133.733,19.397 134,19.13L134,17.39C132.96,17.537 132.24,17.75 131.84,18.03C131.44,18.31 131.24,18.643 131.24,19.03C131.24,19.35 131.343,19.587 131.55,19.74C131.757,19.893 132.033,19.97 132.38,19.97Z" style="fill:url(#_Linear14);fill-rule:nonzero;"/>
        <path d="M142.88,22.25C142.267,22.25 141.743,22.157 141.31,21.97C140.877,21.783 140.523,21.523 140.25,21.19C139.977,20.857 139.777,20.453 139.65,19.98C139.523,19.507 139.46,18.983 139.46,18.41L139.46,14.39L138.1,14.39L138.1,12.21L139.62,12.09L139.96,9.45L142.4,9.45L142.4,12.09L144.78,12.09L144.78,14.39L142.4,14.39L142.4,18.37C142.4,18.93 142.517,19.333 142.75,19.58C142.983,19.827 143.293,19.95 143.68,19.95C143.84,19.95 144.003,19.93 144.17,19.89C144.337,19.85 144.487,19.803 144.62,19.75L145.08,21.89C144.813,21.97 144.5,22.05 144.14,22.13C143.78,22.21 143.36,22.25 142.88,22.25Z" style="fill:url(#_Linear15);fill-rule:nonzero;"/>
        <path d="M150.8,22.25C150.093,22.25 149.433,22.133 148.82,21.9C148.207,21.667 147.673,21.327 147.22,20.88C146.767,20.433 146.413,19.89 146.16,19.25C145.907,18.61 145.78,17.877 145.78,17.05C145.78,16.25 145.913,15.527 146.18,14.88C146.447,14.233 146.797,13.687 147.23,13.24C147.663,12.793 148.16,12.45 148.72,12.21C149.28,11.97 149.86,11.85 150.46,11.85C151.167,11.85 151.783,11.97 152.31,12.21C152.837,12.45 153.277,12.783 153.63,13.21C153.983,13.637 154.247,14.14 154.42,14.72C154.593,15.3 154.68,15.93 154.68,16.61C154.68,16.877 154.667,17.13 154.64,17.37C154.613,17.61 154.587,17.79 154.56,17.91L148.62,17.91C148.753,18.63 149.05,19.16 149.51,19.5C149.97,19.84 150.533,20.01 151.2,20.01C151.907,20.01 152.62,19.79 153.34,19.35L154.32,21.13C153.813,21.477 153.25,21.75 152.63,21.95C152.01,22.15 151.4,22.25 150.8,22.25ZM152.18,15.97C152.18,15.41 152.053,14.957 151.8,14.61C151.547,14.263 151.12,14.09 150.52,14.09C150.053,14.09 149.643,14.243 149.29,14.55C148.937,14.857 148.707,15.33 148.6,15.97L152.18,15.97Z" style="fill:url(#_Linear16);fill-rule:nonzero;"/>
        <path d="M162.22,10.27C161.847,10.137 161.507,10.07 161.2,10.07C160.84,10.07 160.56,10.18 160.36,10.4C160.16,10.62 160.06,10.983 160.06,11.49L160.06,12.09L161.84,12.09L161.84,14.39L160.06,14.39L160.06,22.01L157.12,22.01L157.12,14.39L155.8,14.39L155.8,12.21L157.12,12.11L157.12,11.57C157.12,11.05 157.183,10.557 157.31,10.09C157.437,9.623 157.647,9.217 157.94,8.87C158.233,8.523 158.613,8.25 159.08,8.05C159.547,7.85 160.113,7.75 160.78,7.75C161.193,7.75 161.57,7.79 161.91,7.87C162.25,7.95 162.533,8.03 162.76,8.11L162.22,10.27Z" style="fill:url(#_Linear17);fill-rule:nonzero;"/>
        <path d="M167.5,22.25C166.873,22.25 166.267,22.133 165.68,21.9C165.093,21.667 164.577,21.33 164.13,20.89C163.683,20.45 163.327,19.907 163.06,19.26C162.793,18.613 162.66,17.877 162.66,17.05C162.66,16.223 162.793,15.487 163.06,14.84C163.327,14.193 163.683,13.65 164.13,13.21C164.577,12.77 165.093,12.433 165.68,12.2C166.267,11.967 166.873,11.85 167.5,11.85C168.127,11.85 168.73,11.967 169.31,12.2C169.89,12.433 170.403,12.77 170.85,13.21C171.297,13.65 171.653,14.193 171.92,14.84C172.187,15.487 172.32,16.223 172.32,17.05C172.32,17.877 172.187,18.613 171.92,19.26C171.653,19.907 171.297,20.45 170.85,20.89C170.403,21.33 169.89,21.667 169.31,21.9C168.73,22.133 168.127,22.25 167.5,22.25ZM167.5,19.87C168.1,19.87 168.553,19.617 168.86,19.11C169.167,18.603 169.32,17.917 169.32,17.05C169.32,16.183 169.167,15.497 168.86,14.99C168.553,14.483 168.1,14.23 167.5,14.23C166.887,14.23 166.43,14.483 166.13,14.99C165.83,15.497 165.68,16.183 165.68,17.05C165.68,17.917 165.83,18.603 166.13,19.11C166.43,19.617 166.887,19.87 167.5,19.87Z" style="fill:url(#_Linear18);fill-rule:nonzero;"/>
        <path d="M174.34,12.09L176.74,12.09L176.94,13.83L177.02,13.83C177.38,13.15 177.813,12.65 178.32,12.33C178.827,12.01 179.333,11.85 179.84,11.85C180.12,11.85 180.35,11.867 180.53,11.9C180.71,11.933 180.873,11.983 181.02,12.05L180.54,14.59C180.353,14.537 180.18,14.497 180.02,14.47C179.86,14.443 179.673,14.43 179.46,14.43C179.087,14.43 178.697,14.563 178.29,14.83C177.883,15.097 177.547,15.57 177.28,16.25L177.28,22.01L174.34,22.01L174.34,12.09Z" style="fill:url(#_Linear19);fill-rule:nonzero;"/>
        <path d="M182.3,12.09L184.7,12.09L184.9,13.37L184.98,13.37C185.393,12.957 185.833,12.6 186.3,12.3C186.767,12 187.327,11.85 187.98,11.85C188.687,11.85 189.257,11.993 189.69,12.28C190.123,12.567 190.467,12.977 190.72,13.51C191.16,13.057 191.623,12.667 192.11,12.34C192.597,12.013 193.173,11.85 193.84,11.85C194.907,11.85 195.69,12.207 196.19,12.92C196.69,13.633 196.94,14.61 196.94,15.85L196.94,22.01L194,22.01L194,16.23C194,15.51 193.903,15.017 193.71,14.75C193.517,14.483 193.207,14.35 192.78,14.35C192.287,14.35 191.72,14.67 191.08,15.31L191.08,22.01L188.14,22.01L188.14,16.23C188.14,15.51 188.043,15.017 187.85,14.75C187.657,14.483 187.347,14.35 186.92,14.35C186.413,14.35 185.853,14.67 185.24,15.31L185.24,22.01L182.3,22.01L182.3,12.09Z" style="fill:url(#_Linear20);fill-rule:nonzero;"/>
        <path d="M203.88,22.25C203.173,22.25 202.513,22.133 201.9,21.9C201.287,21.667 200.753,21.327 200.3,20.88C199.847,20.433 199.493,19.89 199.24,19.25C198.987,18.61 198.86,17.877 198.86,17.05C198.86,16.25 198.993,15.527 199.26,14.88C199.527,14.233 199.877,13.687 200.31,13.24C200.743,12.793 201.24,12.45 201.8,12.21C202.36,11.97 202.94,11.85 203.54,11.85C204.247,11.85 204.863,11.97 205.39,12.21C205.917,12.45 206.357,12.783 206.71,13.21C207.063,13.637 207.327,14.14 207.5,14.72C207.673,15.3 207.76,15.93 207.76,16.61C207.76,16.877 207.747,17.13 207.72,17.37C207.693,17.61 207.667,17.79 207.64,17.91L201.7,17.91C201.833,18.63 202.13,19.16 202.59,19.5C203.05,19.84 203.613,20.01 204.28,20.01C204.987,20.01 205.7,19.79 206.42,19.35L207.4,21.13C206.893,21.477 206.33,21.75 205.71,21.95C205.09,22.15 204.48,22.25 203.88,22.25ZM205.26,15.97C205.26,15.41 205.133,14.957 204.88,14.61C204.627,14.263 204.2,14.09 203.6,14.09C203.133,14.09 202.723,14.243 202.37,14.55C202.017,14.857 201.787,15.33 201.68,15.97L205.26,15.97Z" style="fill:url(#_Linear21);fill-rule:nonzero;"/>
        <path d="M217.34,22.25C216.727,22.25 216.17,22.13 215.67,21.89C215.17,21.65 214.743,21.307 214.39,20.86C214.037,20.413 213.763,19.87 213.57,19.23C213.377,18.59 213.28,17.863 213.28,17.05C213.28,16.237 213.397,15.51 213.63,14.87C213.863,14.23 214.17,13.687 214.55,13.24C214.93,12.793 215.37,12.45 215.87,12.21C216.37,11.97 216.88,11.85 217.4,11.85C217.96,11.85 218.42,11.943 218.78,12.13C219.14,12.317 219.493,12.57 219.84,12.89L219.72,11.37L219.72,7.99L222.66,7.99L222.66,22.01L220.26,22.01L220.06,21.03L219.98,21.03C219.633,21.377 219.227,21.667 218.76,21.9C218.293,22.133 217.82,22.25 217.34,22.25ZM218.1,19.85C218.42,19.85 218.71,19.783 218.97,19.65C219.23,19.517 219.48,19.283 219.72,18.95L219.72,14.89C219.453,14.65 219.18,14.483 218.9,14.39C218.62,14.297 218.347,14.25 218.08,14.25C217.613,14.25 217.2,14.473 216.84,14.92C216.48,15.367 216.3,16.063 216.3,17.01C216.3,17.997 216.457,18.717 216.77,19.17C217.083,19.623 217.527,19.85 218.1,19.85Z" style="fill:url(#_Linear22);fill-rule:nonzero;"/>
        <path d="M229.7,22.25C228.993,22.25 228.333,22.133 227.72,21.9C227.107,21.667 226.573,21.327 226.12,20.88C225.667,20.433 225.313,19.89 225.06,19.25C224.807,18.61 224.68,17.877 224.68,17.05C224.68,16.25 224.813,15.527 225.08,14.88C225.347,14.233 225.697,13.687 226.13,13.24C226.563,12.793 227.06,12.45 227.62,12.21C228.18,11.97 228.76,11.85 229.36,11.85C230.067,11.85 230.683,11.97 231.21,12.21C231.737,12.45 232.177,12.783 232.53,13.21C232.883,13.637 233.147,14.14 233.32,14.72C233.493,15.3 233.58,15.93 233.58,16.61C233.58,16.877 233.567,17.13 233.54,17.37C233.513,17.61 233.487,17.79 233.46,17.91L227.52,17.91C227.653,18.63 227.95,19.16 228.41,19.5C228.87,19.84 229.433,20.01 230.1,20.01C230.807,20.01 231.52,19.79 232.24,19.35L233.22,21.13C232.713,21.477 232.15,21.75 231.53,21.95C230.91,22.15 230.3,22.25 229.7,22.25ZM231.08,15.97C231.08,15.41 230.953,14.957 230.7,14.61C230.447,14.263 230.02,14.09 229.42,14.09C228.953,14.09 228.543,14.243 228.19,14.55C227.837,14.857 227.607,15.33 227.5,15.97L231.08,15.97Z" style="fill:url(#_Linear23);fill-rule:nonzero;"/>
        <path d="M4.84,42.25C4.227,42.25 3.67,42.13 3.17,41.89C2.67,41.65 2.243,41.307 1.89,40.86C1.537,40.413 1.263,39.87 1.07,39.23C0.877,38.59 0.78,37.863 0.78,37.05C0.78,36.237 0.897,35.51 1.13,34.87C1.363,34.23 1.67,33.687 2.05,33.24C2.43,32.793 2.87,32.45 3.37,32.21C3.87,31.97 4.38,31.85 4.9,31.85C5.46,31.85 5.92,31.943 6.28,32.13C6.64,32.317 6.993,32.57 7.34,32.89L7.22,31.37L7.22,27.99L10.16,27.99L10.16,42.01L7.76,42.01L7.56,41.03L7.48,41.03C7.133,41.377 6.727,41.667 6.26,41.9C5.793,42.133 5.32,42.25 4.84,42.25ZM5.6,39.85C5.92,39.85 6.21,39.783 6.47,39.65C6.73,39.517 6.98,39.283 7.22,38.95L7.22,34.89C6.953,34.65 6.68,34.483 6.4,34.39C6.12,34.297 5.847,34.25 5.58,34.25C5.113,34.25 4.7,34.473 4.34,34.92C3.98,35.367 3.8,36.063 3.8,37.01C3.8,37.997 3.957,38.717 4.27,39.17C4.583,39.623 5.027,39.85 5.6,39.85Z" style="fill:url(#_Linear24);fill-rule:nonzero;"/>
        <path d="M17.2,42.25C16.493,42.25 15.833,42.133 15.22,41.9C14.607,41.667 14.073,41.327 13.62,40.88C13.167,40.433 12.813,39.89 12.56,39.25C12.307,38.61 12.18,37.877 12.18,37.05C12.18,36.25 12.313,35.527 12.58,34.88C12.847,34.233 13.197,33.687 13.63,33.24C14.063,32.793 14.56,32.45 15.12,32.21C15.68,31.97 16.26,31.85 16.86,31.85C17.567,31.85 18.183,31.97 18.71,32.21C19.237,32.45 19.677,32.783 20.03,33.21C20.383,33.637 20.647,34.14 20.82,34.72C20.993,35.3 21.08,35.93 21.08,36.61C21.08,36.877 21.067,37.13 21.04,37.37C21.013,37.61 20.987,37.79 20.96,37.91L15.02,37.91C15.153,38.63 15.45,39.16 15.91,39.5C16.37,39.84 16.933,40.01 17.6,40.01C18.307,40.01 19.02,39.79 19.74,39.35L20.72,41.13C20.213,41.477 19.65,41.75 19.03,41.95C18.41,42.15 17.8,42.25 17.2,42.25ZM18.58,35.97C18.58,35.41 18.453,34.957 18.2,34.61C17.947,34.263 17.52,34.09 16.92,34.09C16.453,34.09 16.043,34.243 15.69,34.55C15.337,34.857 15.107,35.33 15,35.97L18.58,35.97ZM15.62,29.13L18.7,25.49L20.68,27.43L17.06,30.57L15.62,29.13Z" style="fill:url(#_Linear25);fill-rule:nonzero;"/>
        <path d="M27.44,42.25C26.747,42.25 26.103,42.133 25.51,41.9C24.917,41.667 24.4,41.33 23.96,40.89C23.52,40.45 23.173,39.907 22.92,39.26C22.667,38.613 22.54,37.877 22.54,37.05C22.54,36.223 22.68,35.487 22.96,34.84C23.24,34.193 23.617,33.65 24.09,33.21C24.563,32.77 25.113,32.433 25.74,32.2C26.367,31.967 27.02,31.85 27.7,31.85C28.313,31.85 28.857,31.95 29.33,32.15C29.803,32.35 30.227,32.603 30.6,32.91L29.22,34.81C28.753,34.423 28.307,34.23 27.88,34.23C27.16,34.23 26.593,34.483 26.18,34.99C25.767,35.497 25.56,36.183 25.56,37.05C25.56,37.917 25.77,38.603 26.19,39.11C26.61,39.617 27.14,39.87 27.78,39.87C28.1,39.87 28.41,39.8 28.71,39.66C29.01,39.52 29.293,39.35 29.56,39.15L30.72,41.07C30.227,41.497 29.693,41.8 29.12,41.98C28.547,42.16 27.987,42.25 27.44,42.25Z" style="fill:url(#_Linear26);fill-rule:nonzero;"/>
        <path d="M36.16,42.25C35.533,42.25 34.927,42.133 34.34,41.9C33.753,41.667 33.237,41.33 32.79,40.89C32.343,40.45 31.987,39.907 31.72,39.26C31.453,38.613 31.32,37.877 31.32,37.05C31.32,36.223 31.453,35.487 31.72,34.84C31.987,34.193 32.343,33.65 32.79,33.21C33.237,32.77 33.753,32.433 34.34,32.2C34.927,31.967 35.533,31.85 36.16,31.85C36.787,31.85 37.39,31.967 37.97,32.2C38.55,32.433 39.063,32.77 39.51,33.21C39.957,33.65 40.313,34.193 40.58,34.84C40.847,35.487 40.98,36.223 40.98,37.05C40.98,37.877 40.847,38.613 40.58,39.26C40.313,39.907 39.957,40.45 39.51,40.89C39.063,41.33 38.55,41.667 37.97,41.9C37.39,42.133 36.787,42.25 36.16,42.25ZM36.16,39.87C36.76,39.87 37.213,39.617 37.52,39.11C37.827,38.603 37.98,37.917 37.98,37.05C37.98,36.183 37.827,35.497 37.52,34.99C37.213,34.483 36.76,34.23 36.16,34.23C35.547,34.23 35.09,34.483 34.79,34.99C34.49,35.497 34.34,36.183 34.34,37.05C34.34,37.917 34.49,38.603 34.79,39.11C35.09,39.617 35.547,39.87 36.16,39.87Z" style="fill:url(#_Linear27);fill-rule:nonzero;"/>
        <path d="M45.98,42.25C44.9,42.25 44.117,41.897 43.63,41.19C43.143,40.483 42.9,39.503 42.9,38.25L42.9,32.09L45.84,32.09L45.84,37.87C45.84,38.59 45.94,39.083 46.14,39.35C46.34,39.617 46.653,39.75 47.08,39.75C47.453,39.75 47.767,39.663 48.02,39.49C48.273,39.317 48.547,39.037 48.84,38.65L48.84,32.09L51.78,32.09L51.78,42.01L49.38,42.01L49.16,40.63L49.1,40.63C48.673,41.137 48.217,41.533 47.73,41.82C47.243,42.107 46.66,42.25 45.98,42.25Z" style="fill:url(#_Linear28);fill-rule:nonzero;"/>
        <path d="M53.3,32.09L56.26,32.09L57.54,36.77C57.673,37.263 57.803,37.767 57.93,38.28C58.057,38.793 58.187,39.31 58.32,39.83L58.4,39.83C58.52,39.31 58.643,38.793 58.77,38.28C58.897,37.767 59.027,37.263 59.16,36.77L60.46,32.09L63.28,32.09L60.04,42.01L56.64,42.01L53.3,32.09Z" style="fill:url(#_Linear29);fill-rule:nonzero;"/>
        <path d="M69.1,42.25C68.393,42.25 67.733,42.133 67.12,41.9C66.507,41.667 65.973,41.327 65.52,40.88C65.067,40.433 64.713,39.89 64.46,39.25C64.207,38.61 64.08,37.877 64.08,37.05C64.08,36.25 64.213,35.527 64.48,34.88C64.747,34.233 65.097,33.687 65.53,33.24C65.963,32.793 66.46,32.45 67.02,32.21C67.58,31.97 68.16,31.85 68.76,31.85C69.467,31.85 70.083,31.97 70.61,32.21C71.137,32.45 71.577,32.783 71.93,33.21C72.283,33.637 72.547,34.14 72.72,34.72C72.893,35.3 72.98,35.93 72.98,36.61C72.98,36.877 72.967,37.13 72.94,37.37C72.913,37.61 72.887,37.79 72.86,37.91L66.92,37.91C67.053,38.63 67.35,39.16 67.81,39.5C68.27,39.84 68.833,40.01 69.5,40.01C70.207,40.01 70.92,39.79 71.64,39.35L72.62,41.13C72.113,41.477 71.55,41.75 70.93,41.95C70.31,42.15 69.7,42.25 69.1,42.25ZM70.48,35.97C70.48,35.41 70.353,34.957 70.1,34.61C69.847,34.263 69.42,34.09 68.82,34.09C68.353,34.09 67.943,34.243 67.59,34.55C67.237,34.857 67.007,35.33 66.9,35.97L70.48,35.97Z" style="fill:url(#_Linear30);fill-rule:nonzero;"/>
        <path d="M75.02,32.09L77.42,32.09L77.62,33.83L77.7,33.83C78.06,33.15 78.493,32.65 79,32.33C79.507,32.01 80.013,31.85 80.52,31.85C80.8,31.85 81.03,31.867 81.21,31.9C81.39,31.933 81.553,31.983 81.7,32.05L81.22,34.59C81.033,34.537 80.86,34.497 80.7,34.47C80.54,34.443 80.353,34.43 80.14,34.43C79.767,34.43 79.377,34.563 78.97,34.83C78.563,35.097 78.227,35.57 77.96,36.25L77.96,42.01L75.02,42.01L75.02,32.09Z" style="fill:url(#_Linear31);fill-rule:nonzero;"/>
        <path d="M86.8,42.25C86.187,42.25 85.663,42.157 85.23,41.97C84.797,41.783 84.443,41.523 84.17,41.19C83.897,40.857 83.697,40.453 83.57,39.98C83.443,39.507 83.38,38.983 83.38,38.41L83.38,34.39L82.02,34.39L82.02,32.21L83.54,32.09L83.88,29.45L86.32,29.45L86.32,32.09L88.7,32.09L88.7,34.39L86.32,34.39L86.32,38.37C86.32,38.93 86.437,39.333 86.67,39.58C86.903,39.827 87.213,39.95 87.6,39.95C87.76,39.95 87.923,39.93 88.09,39.89C88.257,39.85 88.407,39.803 88.54,39.75L89,41.89C88.733,41.97 88.42,42.05 88.06,42.13C87.7,42.21 87.28,42.25 86.8,42.25Z" style="fill:url(#_Linear32);fill-rule:nonzero;"/>
        <path d="M94.72,42.25C94.013,42.25 93.353,42.133 92.74,41.9C92.127,41.667 91.593,41.327 91.14,40.88C90.687,40.433 90.333,39.89 90.08,39.25C89.827,38.61 89.7,37.877 89.7,37.05C89.7,36.25 89.833,35.527 90.1,34.88C90.367,34.233 90.717,33.687 91.15,33.24C91.583,32.793 92.08,32.45 92.64,32.21C93.2,31.97 93.78,31.85 94.38,31.85C95.087,31.85 95.703,31.97 96.23,32.21C96.757,32.45 97.197,32.783 97.55,33.21C97.903,33.637 98.167,34.14 98.34,34.72C98.513,35.3 98.6,35.93 98.6,36.61C98.6,36.877 98.587,37.13 98.56,37.37C98.533,37.61 98.507,37.79 98.48,37.91L92.54,37.91C92.673,38.63 92.97,39.16 93.43,39.5C93.89,39.84 94.453,40.01 95.12,40.01C95.827,40.01 96.54,39.79 97.26,39.35L98.24,41.13C97.733,41.477 97.17,41.75 96.55,41.95C95.93,42.15 95.32,42.25 94.72,42.25ZM96.1,35.97C96.1,35.41 95.973,34.957 95.72,34.61C95.467,34.263 95.04,34.09 94.44,34.09C93.973,34.09 93.563,34.243 93.21,34.55C92.857,34.857 92.627,35.33 92.52,35.97L96.1,35.97Z" style="fill:url(#_Linear33);fill-rule:nonzero;"/>
        <path d="M108.18,42.25C107.567,42.25 107.01,42.13 106.51,41.89C106.01,41.65 105.583,41.307 105.23,40.86C104.877,40.413 104.603,39.87 104.41,39.23C104.217,38.59 104.12,37.863 104.12,37.05C104.12,36.237 104.237,35.51 104.47,34.87C104.703,34.23 105.01,33.687 105.39,33.24C105.77,32.793 106.21,32.45 106.71,32.21C107.21,31.97 107.72,31.85 108.24,31.85C108.8,31.85 109.26,31.943 109.62,32.13C109.98,32.317 110.333,32.57 110.68,32.89L110.56,31.37L110.56,27.99L113.5,27.99L113.5,42.01L111.1,42.01L110.9,41.03L110.82,41.03C110.473,41.377 110.067,41.667 109.6,41.9C109.133,42.133 108.66,42.25 108.18,42.25ZM108.94,39.85C109.26,39.85 109.55,39.783 109.81,39.65C110.07,39.517 110.32,39.283 110.56,38.95L110.56,34.89C110.293,34.65 110.02,34.483 109.74,34.39C109.46,34.297 109.187,34.25 108.92,34.25C108.453,34.25 108.04,34.473 107.68,34.92C107.32,35.367 107.14,36.063 107.14,37.01C107.14,37.997 107.297,38.717 107.61,39.17C107.923,39.623 108.367,39.85 108.94,39.85Z" style="fill:url(#_Linear34);fill-rule:nonzero;"/>
        <path d="M120.54,42.25C119.833,42.25 119.173,42.133 118.56,41.9C117.947,41.667 117.413,41.327 116.96,40.88C116.507,40.433 116.153,39.89 115.9,39.25C115.647,38.61 115.52,37.877 115.52,37.05C115.52,36.25 115.653,35.527 115.92,34.88C116.187,34.233 116.537,33.687 116.97,33.24C117.403,32.793 117.9,32.45 118.46,32.21C119.02,31.97 119.6,31.85 120.2,31.85C120.907,31.85 121.523,31.97 122.05,32.21C122.577,32.45 123.017,32.783 123.37,33.21C123.723,33.637 123.987,34.14 124.16,34.72C124.333,35.3 124.42,35.93 124.42,36.61C124.42,36.877 124.407,37.13 124.38,37.37C124.353,37.61 124.327,37.79 124.3,37.91L118.36,37.91C118.493,38.63 118.79,39.16 119.25,39.5C119.71,39.84 120.273,40.01 120.94,40.01C121.647,40.01 122.36,39.79 123.08,39.35L124.06,41.13C123.553,41.477 122.99,41.75 122.37,41.95C121.75,42.15 121.14,42.25 120.54,42.25ZM121.92,35.97C121.92,35.41 121.793,34.957 121.54,34.61C121.287,34.263 120.86,34.09 120.26,34.09C119.793,34.09 119.383,34.243 119.03,34.55C118.677,34.857 118.447,35.33 118.34,35.97L121.92,35.97Z" style="fill:url(#_Linear35);fill-rule:nonzero;"/>
        <path d="M134.28,42.25C133.667,42.25 133.143,42.157 132.71,41.97C132.277,41.783 131.923,41.523 131.65,41.19C131.377,40.857 131.177,40.453 131.05,39.98C130.923,39.507 130.86,38.983 130.86,38.41L130.86,34.39L129.5,34.39L129.5,32.21L131.02,32.09L131.36,29.45L133.8,29.45L133.8,32.09L136.18,32.09L136.18,34.39L133.8,34.39L133.8,38.37C133.8,38.93 133.917,39.333 134.15,39.58C134.383,39.827 134.693,39.95 135.08,39.95C135.24,39.95 135.403,39.93 135.57,39.89C135.737,39.85 135.887,39.803 136.02,39.75L136.48,41.89C136.213,41.97 135.9,42.05 135.54,42.13C135.18,42.21 134.76,42.25 134.28,42.25Z" style="fill:url(#_Linear36);fill-rule:nonzero;"/>
        <path d="M140.22,42.25C139.767,42.25 139.357,42.173 138.99,42.02C138.623,41.867 138.313,41.653 138.06,41.38C137.807,41.107 137.61,40.79 137.47,40.43C137.33,40.07 137.26,39.677 137.26,39.25C137.26,38.21 137.7,37.397 138.58,36.81C139.46,36.223 140.88,35.83 142.84,35.63C142.813,35.19 142.683,34.84 142.45,34.58C142.217,34.32 141.827,34.19 141.28,34.19C140.853,34.19 140.43,34.27 140.01,34.43C139.59,34.59 139.14,34.81 138.66,35.09L137.6,33.15C138.24,32.763 138.91,32.45 139.61,32.21C140.31,31.97 141.053,31.85 141.84,31.85C143.12,31.85 144.097,32.213 144.77,32.94C145.443,33.667 145.78,34.797 145.78,36.33L145.78,42.01L143.38,42.01L143.18,40.99L143.1,40.99C142.673,41.363 142.227,41.667 141.76,41.9C141.293,42.133 140.78,42.25 140.22,42.25ZM141.22,39.97C141.553,39.97 141.84,39.897 142.08,39.75C142.32,39.603 142.573,39.397 142.84,39.13L142.84,37.39C141.8,37.537 141.08,37.75 140.68,38.03C140.28,38.31 140.08,38.643 140.08,39.03C140.08,39.35 140.183,39.587 140.39,39.74C140.597,39.893 140.873,39.97 141.22,39.97Z" style="fill:url(#_Linear37);fill-rule:nonzero;"/>
        <path d="M150.96,42.25C150.453,42.25 150.027,42.17 149.68,42.01C149.333,41.85 149.057,41.627 148.85,41.34C148.643,41.053 148.493,40.707 148.4,40.3C148.307,39.893 148.26,39.437 148.26,38.93L148.26,27.99L151.2,27.99L151.2,39.05C151.2,39.357 151.257,39.57 151.37,39.69C151.483,39.81 151.6,39.87 151.72,39.87C151.787,39.87 151.843,39.87 151.89,39.87C151.937,39.87 152,39.857 152.08,39.83L152.44,42.01C152.28,42.077 152.077,42.133 151.83,42.18C151.583,42.227 151.293,42.25 150.96,42.25Z" style="fill:url(#_Linear38);fill-rule:nonzero;"/>
        <path d="M158.42,42.25C157.713,42.25 157.053,42.133 156.44,41.9C155.827,41.667 155.293,41.327 154.84,40.88C154.387,40.433 154.033,39.89 153.78,39.25C153.527,38.61 153.4,37.877 153.4,37.05C153.4,36.25 153.533,35.527 153.8,34.88C154.067,34.233 154.417,33.687 154.85,33.24C155.283,32.793 155.78,32.45 156.34,32.21C156.9,31.97 157.48,31.85 158.08,31.85C158.787,31.85 159.403,31.97 159.93,32.21C160.457,32.45 160.897,32.783 161.25,33.21C161.603,33.637 161.867,34.14 162.04,34.72C162.213,35.3 162.3,35.93 162.3,36.61C162.3,36.877 162.287,37.13 162.26,37.37C162.233,37.61 162.207,37.79 162.18,37.91L156.24,37.91C156.373,38.63 156.67,39.16 157.13,39.5C157.59,39.84 158.153,40.01 158.82,40.01C159.527,40.01 160.24,39.79 160.96,39.35L161.94,41.13C161.433,41.477 160.87,41.75 160.25,41.95C159.63,42.15 159.02,42.25 158.42,42.25ZM159.8,35.97C159.8,35.41 159.673,34.957 159.42,34.61C159.167,34.263 158.74,34.09 158.14,34.09C157.673,34.09 157.263,34.243 156.91,34.55C156.557,34.857 156.327,35.33 156.22,35.97L159.8,35.97Z" style="fill:url(#_Linear39);fill-rule:nonzero;"/>
        <path d="M164.34,32.09L166.74,32.09L166.94,33.35L167.02,33.35C167.447,32.95 167.913,32.6 168.42,32.3C168.927,32 169.52,31.85 170.2,31.85C171.28,31.85 172.063,32.203 172.55,32.91C173.037,33.617 173.28,34.597 173.28,35.85L173.28,42.01L170.34,42.01L170.34,36.23C170.34,35.51 170.243,35.017 170.05,34.75C169.857,34.483 169.547,34.35 169.12,34.35C168.747,34.35 168.427,34.433 168.16,34.6C167.893,34.767 167.6,35.003 167.28,35.31L167.28,42.01L164.34,42.01L164.34,32.09Z" style="fill:url(#_Linear40);fill-rule:nonzero;"/>
        <path d="M179.6,42.25C178.987,42.25 178.463,42.157 178.03,41.97C177.597,41.783 177.243,41.523 176.97,41.19C176.697,40.857 176.497,40.453 176.37,39.98C176.243,39.507 176.18,38.983 176.18,38.41L176.18,34.39L174.82,34.39L174.82,32.21L176.34,32.09L176.68,29.45L179.12,29.45L179.12,32.09L181.5,32.09L181.5,34.39L179.12,34.39L179.12,38.37C179.12,38.93 179.237,39.333 179.47,39.58C179.703,39.827 180.013,39.95 180.4,39.95C180.56,39.95 180.723,39.93 180.89,39.89C181.057,39.85 181.207,39.803 181.34,39.75L181.8,41.89C181.533,41.97 181.22,42.05 180.86,42.13C180.5,42.21 180.08,42.25 179.6,42.25Z" style="fill:url(#_Linear41);fill-rule:nonzero;"/>
        <path d="M186.16,42.25C185.507,42.25 184.837,42.123 184.15,41.87C183.463,41.617 182.867,41.283 182.36,40.87L183.68,39.03C184.133,39.377 184.567,39.637 184.98,39.81C185.393,39.983 185.813,40.07 186.24,40.07C186.68,40.07 187,39.997 187.2,39.85C187.4,39.703 187.5,39.497 187.5,39.23C187.5,39.07 187.443,38.927 187.33,38.8C187.217,38.673 187.063,38.557 186.87,38.45C186.677,38.343 186.46,38.247 186.22,38.16C185.98,38.073 185.733,37.977 185.48,37.87C185.173,37.75 184.867,37.61 184.56,37.45C184.253,37.29 183.973,37.093 183.72,36.86C183.467,36.627 183.26,36.353 183.1,36.04C182.94,35.727 182.86,35.363 182.86,34.95C182.86,34.497 182.95,34.077 183.13,33.69C183.31,33.303 183.567,32.977 183.9,32.71C184.233,32.443 184.633,32.233 185.1,32.08C185.567,31.927 186.087,31.85 186.66,31.85C187.42,31.85 188.087,31.98 188.66,32.24C189.233,32.5 189.733,32.79 190.16,33.11L188.84,34.87C188.48,34.603 188.127,34.397 187.78,34.25C187.433,34.103 187.087,34.03 186.74,34.03C185.993,34.03 185.62,34.29 185.62,34.81C185.62,34.97 185.673,35.107 185.78,35.22C185.887,35.333 186.03,35.437 186.21,35.53C186.39,35.623 186.597,35.713 186.83,35.8C187.063,35.887 187.307,35.977 187.56,36.07C187.88,36.19 188.197,36.327 188.51,36.48C188.823,36.633 189.11,36.823 189.37,37.05C189.63,37.277 189.84,37.553 190,37.88C190.16,38.207 190.24,38.597 190.24,39.05C190.24,39.503 190.153,39.923 189.98,40.31C189.807,40.697 189.547,41.033 189.2,41.32C188.853,41.607 188.427,41.833 187.92,42C187.413,42.167 186.827,42.25 186.16,42.25Z" style="fill:url(#_Linear42);fill-rule:nonzero;"/>
        <path d="M197.8,35.77C197.293,35.77 196.87,35.593 196.53,35.24C196.19,34.887 196.02,34.45 196.02,33.93C196.02,33.397 196.19,32.953 196.53,32.6C196.87,32.247 197.293,32.07 197.8,32.07C198.307,32.07 198.73,32.247 199.07,32.6C199.41,32.953 199.58,33.397 199.58,33.93C199.58,34.45 199.41,34.887 199.07,35.24C198.73,35.593 198.307,35.77 197.8,35.77ZM197.8,42.25C197.293,42.25 196.87,42.073 196.53,41.72C196.19,41.367 196.02,40.93 196.02,40.41C196.02,39.877 196.19,39.433 196.53,39.08C196.87,38.727 197.293,38.55 197.8,38.55C198.307,38.55 198.73,38.727 199.07,39.08C199.41,39.433 199.58,39.877 199.58,40.41C199.58,40.93 199.41,41.367 199.07,41.72C198.73,42.073 198.307,42.25 197.8,42.25Z" style="fill:url(#_Linear43);fill-rule:nonzero;"/>
    </g>
    <defs>
        <linearGradient id="_Linear1" x1="0" y1="0" x2="1" y2="0" gradientUnits="userSpaceOnUse" gradientTransform="matrix(225.76,0,0,45.14,0,25.01)"><stop offset="0" style="stop-color:rgb(0,60,255);stop-opacity:1"/><stop offset="1" style="stop-color:rgb(85,51,144);stop-opacity:1"/></linearGradient>
        <linearGradient id="_Linear2" x1="0" y1="0" x2="1" y2="0" gradientUnits="userSpaceOnUse" gradientTransform="matrix(225.76,0,0,45.14,0,25.01)"><stop offset="0" style="stop-color:rgb(0,60,255);stop-opacity:1"/><stop offset="1" style="stop-color:rgb(85,51,144);stop-opacity:1"/></linearGradient>
        <linearGradient id="_Linear3" x1="0" y1="0" x2="1" y2="0" gradientUnits="userSpaceOnUse" gradientTransform="matrix(225.76,0,0,45.14,0,25.01)"><stop offset="0" style="stop-color:rgb(0,60,255);stop-opacity:1"/><stop offset="1" style="stop-color:rgb(85,51,144);stop-opacity:1"/></linearGradient>
        <linearGradient id="_Linear4" x1="0" y1="0" x2="1" y2="0" gradientUnits="userSpaceOnUse" gradientTransform="matrix(225.76,0,0,45.14,0,25.01)"><stop offset="0" style="stop-color:rgb(0,60,255);stop-opacity:1"/><stop offset="1" style="stop-color:rgb(85,51,144);stop-opacity:1"/></linearGradient>
        <linearGradient id="_Linear5" x1="0" y1="0" x2="1" y2="0" gradientUnits="userSpaceOnUse" gradientTransform="matrix(225.76,0,0,45.14,0,25.01)"><stop offset="0" style="stop-color:rgb(0,60,255);stop-opacity:1"/><stop offset="1" style="stop-color:rgb(85,51,144);stop-opacity:1"/></linearGradient>
        <linearGradient id="_Linear6" x1="0" y1="0" x2="1" y2="0" gradientUnits="userSpaceOnUse" gradientTransform="matrix(225.76,0,0,45.14,0,25.01)"><stop offset="0" style="stop-color:rgb(0,60,255);stop-opacity:1"/><stop offset="1" style="stop-color:rgb(85,51,144);stop-opacity:1"/></linearGradient>
        <linearGradient id="_Linear7" x1="0" y1="0" x2="1" y2="0" gradientUnits="userSpaceOnUse" gradientTransform="matrix(225.76,0,0,45.14,0,25.01)"><stop offset="0" style="stop-color:rgb(0,60,255);stop-opacity:1"/><stop offset="1" style="stop-color:rgb(85,51,144);stop-opacity:1"/></linearGradient>
        <linearGradient id="_Linear8" x1="0" y1="0" x2="1" y2="0" gradientUnits="userSpaceOnUse" gradientTransform="matrix(225.76,0,0,45.14,0,25.01)"><stop offset="0" style="stop-color:rgb(0,60,255);stop-opacity:1"/><stop offset="1" style="stop-color:rgb(85,51,144);stop-opacity:1"/></linearGradient>
        <linearGradient id="_Linear9" x1="0" y1="0" x2="1" y2="0" gradientUnits="userSpaceOnUse" gradientTransform="matrix(225.76,0,0,45.14,0,25.01)"><stop offset="0" style="stop-color:rgb(0,60,255);stop-opacity:1"/><stop offset="1" style="stop-color:rgb(85,51,144);stop-opacity:1"/></linearGradient>
        <linearGradient id="_Linear10" x1="0" y1="0" x2="1" y2="0" gradientUnits="userSpaceOnUse" gradientTransform="matrix(225.76,0,0,45.14,0,25.01)"><stop offset="0" style="stop-color:rgb(0,60,255);stop-opacity:1"/><stop offset="1" style="stop-color:rgb(85,51,144);stop-opacity:1"/></linearGradient>
        <linearGradient id="_Linear11" x1="0" y1="0" x2="1" y2="0" gradientUnits="userSpaceOnUse" gradientTransform="matrix(225.76,0,0,45.14,0,25.01)"><stop offset="0" style="stop-color:rgb(0,60,255);stop-opacity:1"/><stop offset="1" style="stop-color:rgb(85,51,144);stop-opacity:1"/></linearGradient>
        <linearGradient id="_Linear12" x1="0" y1="0" x2="1" y2="0" gradientUnits="userSpaceOnUse" gradientTransform="matrix(225.76,0,0,45.14,0,25.01)"><stop offset="0" style="stop-color:rgb(0,60,255);stop-opacity:1"/><stop offset="1" style="stop-color:rgb(85,51,144);stop-opacity:1"/></linearGradient>
        <linearGradient id="_Linear13" x1="0" y1="0" x2="1" y2="0" gradientUnits="userSpaceOnUse" gradientTransform="matrix(225.76,0,0,45.14,0,25.01)"><stop offset="0" style="stop-color:rgb(0,60,255);stop-opacity:1"/><stop offset="1" style="stop-color:rgb(85,51,144);stop-opacity:1"/></linearGradient>
        <linearGradient id="_Linear14" x1="0" y1="0" x2="1" y2="0" gradientUnits="userSpaceOnUse" gradientTransform="matrix(225.76,0,0,45.14,0,25.01)"><stop offset="0" style="stop-color:rgb(0,60,255);stop-opacity:1"/><stop offset="1" style="stop-color:rgb(85,51,144);stop-opacity:1"/></linearGradient>
        <linearGradient id="_Linear15" x1="0" y1="0" x2="1" y2="0" gradientUnits="userSpaceOnUse" gradientTransform="matrix(225.76,0,0,45.14,0,25.01)"><stop offset="0" style="stop-color:rgb(0,60,255);stop-opacity:1"/><stop offset="1" style="stop-color:rgb(85,51,144);stop-opacity:1"/></linearGradient>
        <linearGradient id="_Linear16" x1="0" y1="0" x2="1" y2="0" gradientUnits="userSpaceOnUse" gradientTransform="matrix(225.76,0,0,45.14,0,25.01)"><stop offset="0" style="stop-color:rgb(0,60,255);stop-opacity:1"/><stop offset="1" style="stop-color:rgb(85,51,144);stop-opacity:1"/></linearGradient>
        <linearGradient id="_Linear17" x1="0" y1="0" x2="1" y2="0" gradientUnits="userSpaceOnUse" gradientTransform="matrix(225.76,0,0,45.14,0,25.01)"><stop offset="0" style="stop-color:rgb(0,60,255);stop-opacity:1"/><stop offset="1" style="stop-color:rgb(85,51,144);stop-opacity:1"/></linearGradient>
        <linearGradient id="_Linear18" x1="0" y1="0" x2="1" y2="0" gradientUnits="userSpaceOnUse" gradientTransform="matrix(225.76,0,0,45.14,0,25.01)"><stop offset="0" style="stop-color:rgb(0,60,255);stop-opacity:1"/><stop offset="1" style="stop-color:rgb(85,51,144);stop-opacity:1"/></linearGradient>
        <linearGradient id="_Linear19" x1="0" y1="0" x2="1" y2="0" gradientUnits="userSpaceOnUse" gradientTransform="matrix(225.76,0,0,45.14,0,25.01)"><stop offset="0" style="stop-color:rgb(0,60,255);stop-opacity:1"/><stop offset="1" style="stop-color:rgb(85,51,144);stop-opacity:1"/></linearGradient>
        <linearGradient id="_Linear20" x1="0" y1="0" x2="1" y2="0" gradientUnits="userSpaceOnUse" gradientTransform="matrix(225.76,0,0,45.14,0,25.01)"><stop offset="0" style="stop-color:rgb(0,60,255);stop-opacity:1"/><stop offset="1" style="stop-color:rgb(85,51,144);stop-opacity:1"/></linearGradient>
        <linearGradient id="_Linear21" x1="0" y1="0" x2="1" y2="0" gradientUnits="userSpaceOnUse" gradientTransform="matrix(225.76,0,0,45.14,0,25.01)"><stop offset="0" style="stop-color:rgb(0,60,255);stop-opacity:1"/><stop offset="1" style="stop-color:rgb(85,51,144);stop-opacity:1"/></linearGradient>
        <linearGradient id="_Linear22" x1="0" y1="0" x2="1" y2="0" gradientUnits="userSpaceOnUse" gradientTransform="matrix(225.76,0,0,45.14,0,25.01)"><stop offset="0" style="stop-color:rgb(0,60,255);stop-opacity:1"/><stop offset="1" style="stop-color:rgb(85,51,144);stop-opacity:1"/></linearGradient>
        <linearGradient id="_Linear23" x1="0" y1="0" x2="1" y2="0" gradientUnits="userSpaceOnUse" gradientTransform="matrix(225.76,0,0,45.14,0,25.01)"><stop offset="0" style="stop-color:rgb(0,60,255);stop-opacity:1"/><stop offset="1" style="stop-color:rgb(85,51,144);stop-opacity:1"/></linearGradient>
        <linearGradient id="_Linear24" x1="0" y1="0" x2="1" y2="0" gradientUnits="userSpaceOnUse" gradientTransform="matrix(225.76,0,0,45.14,0,25.01)"><stop offset="0" style="stop-color:rgb(0,60,255);stop-opacity:1"/><stop offset="1" style="stop-color:rgb(85,51,144);stop-opacity:1"/></linearGradient>
        <linearGradient id="_Linear25" x1="0" y1="0" x2="1" y2="0" gradientUnits="userSpaceOnUse" gradientTransform="matrix(225.76,0,0,45.14,0,25.01)"><stop offset="0" style="stop-color:rgb(0,60,255);stop-opacity:1"/><stop offset="1" style="stop-color:rgb(85,51,144);stop-opacity:1"/></linearGradient>
        <linearGradient id="_Linear26" x1="0" y1="0" x2="1" y2="0" gradientUnits="userSpaceOnUse" gradientTransform="matrix(225.76,0,0,45.14,0,25.01)"><stop offset="0" style="stop-color:rgb(0,60,255);stop-opacity:1"/><stop offset="1" style="stop-color:rgb(85,51,144);stop-opacity:1"/></linearGradient>
        <linearGradient id="_Linear27" x1="0" y1="0" x2="1" y2="0" gradientUnits="userSpaceOnUse" gradientTransform="matrix(225.76,0,0,45.14,0,25.01)"><stop offset="0" style="stop-color:rgb(0,60,255);stop-opacity:1"/><stop offset="1" style="stop-color:rgb(85,51,144);stop-opacity:1"/></linearGradient>
        <linearGradient id="_Linear28" x1="0" y1="0" x2="1" y2="0" gradientUnits="userSpaceOnUse" gradientTransform="matrix(225.76,0,0,45.14,0,25.01)"><stop offset="0" style="stop-color:rgb(0,60,255);stop-opacity:1"/><stop offset="1" style="stop-color:rgb(85,51,144);stop-opacity:1"/></linearGradient>
        <linearGradient id="_Linear29" x1="0" y1="0" x2="1" y2="0" gradientUnits="userSpaceOnUse" gradientTransform="matrix(225.76,0,0,45.14,0,25.01)"><stop offset="0" style="stop-color:rgb(0,60,255);stop-opacity:1"/><stop offset="1" style="stop-color:rgb(85,51,144);stop-opacity:1"/></linearGradient>
        <linearGradient id="_Linear30" x1="0" y1="0" x2="1" y2="0" gradientUnits="userSpaceOnUse" gradientTransform="matrix(225.76,0,0,45.14,0,25.01)"><stop offset="0" style="stop-color:rgb(0,60,255);stop-opacity:1"/><stop offset="1" style="stop-color:rgb(85,51,144);stop-opacity:1"/></linearGradient>
        <linearGradient id="_Linear31" x1="0" y1="0" x2="1" y2="0" gradientUnits="userSpaceOnUse" gradientTransform="matrix(225.76,0,0,45.14,0,25.01)"><stop offset="0" style="stop-color:rgb(0,60,255);stop-opacity:1"/><stop offset="1" style="stop-color:rgb(85,51,144);stop-opacity:1"/></linearGradient>
        <linearGradient id="_Linear32" x1="0" y1="0" x2="1" y2="0" gradientUnits="userSpaceOnUse" gradientTransform="matrix(225.76,0,0,45.14,0,25.01)"><stop offset="0" style="stop-color:rgb(0,60,255);stop-opacity:1"/><stop offset="1" style="stop-color:rgb(85,51,144);stop-opacity:1"/></linearGradient>
        <linearGradient id="_Linear33" x1="0" y1="0" x2="1" y2="0" gradientUnits="userSpaceOnUse" gradientTransform="matrix(225.76,0,0,45.14,0,25.01)"><stop offset="0" style="stop-color:rgb(0,60,255);stop-opacity:1"/><stop offset="1" style="stop-color:rgb(85,51,144);stop-opacity:1"/></linearGradient>
        <linearGradient id="_Linear34" x1="0" y1="0" x2="1" y2="0" gradientUnits="userSpaceOnUse" gradientTransform="matrix(225.76,0,0,45.14,0,25.01)"><stop offset="0" style="stop-color:rgb(0,60,255);stop-opacity:1"/><stop offset="1" style="stop-color:rgb(85,51,144);stop-opacity:1"/></linearGradient>
        <linearGradient id="_Linear35" x1="0" y1="0" x2="1" y2="0" gradientUnits="userSpaceOnUse" gradientTransform="matrix(225.76,0,0,45.14,0,25.01)"><stop offset="0" style="stop-color:rgb(0,60,255);stop-opacity:1"/><stop offset="1" style="stop-color:rgb(85,51,144);stop-opacity:1"/></linearGradient>
        <linearGradient id="_Linear36" x1="0" y1="0" x2="1" y2="0" gradientUnits="userSpaceOnUse" gradientTransform="matrix(225.76,0,0,45.14,0,25.01)"><stop offset="0" style="stop-color:rgb(0,60,255);stop-opacity:1"/><stop offset="1" style="stop-color:rgb(85,51,144);stop-opacity:1"/></linearGradient>
        <linearGradient id="_Linear37" x1="0" y1="0" x2="1" y2="0" gradientUnits="userSpaceOnUse" gradientTransform="matrix(225.76,0,0,45.14,0,25.01)"><stop offset="0" style="stop-color:rgb(0,60,255);stop-opacity:1"/><stop offset="1" style="stop-color:rgb(85,51,144);stop-opacity:1"/></linearGradient>
        <linearGradient id="_Linear38" x1="0" y1="0" x2="1" y2="0" gradientUnits="userSpaceOnUse" gradientTransform="matrix(225.76,0,0,45.14,0,25.01)"><stop offset="0" style="stop-color:rgb(0,60,255);stop-opacity:1"/><stop offset="1" style="stop-color:rgb(85,51,144);stop-opacity:1"/></linearGradient>
        <linearGradient id="_Linear39" x1="0" y1="0" x2="1" y2="0" gradientUnits="userSpaceOnUse" gradientTransform="matrix(225.76,0,0,45.14,0,25.01)"><stop offset="0" style="stop-color:rgb(0,60,255);stop-opacity:1"/><stop offset="1" style="stop-color:rgb(85,51,144);stop-opacity:1"/></linearGradient>
        <linearGradient id="_Linear40" x1="0" y1="0" x2="1" y2="0" gradientUnits="userSpaceOnUse" gradientTransform="matrix(225.76,0,0,45.14,0,25.01)"><stop offset="0" style="stop-color:rgb(0,60,255);stop-opacity:1"/><stop offset="1" style="stop-color:rgb(85,51,144);stop-opacity:1"/></linearGradient>
        <linearGradient id="_Linear41" x1="0" y1="0" x2="1" y2="0" gradientUnits="userSpaceOnUse" gradientTransform="matrix(225.76,0,0,45.14,0,25.01)"><stop offset="0" style="stop-color:rgb(0,60,255);stop-opacity:1"/><stop offset="1" style="stop-color:rgb(85,51,144);stop-opacity:1"/></linearGradient>
        <linearGradient id="_Linear42" x1="0" y1="0" x2="1" y2="0" gradientUnits="userSpaceOnUse" gradientTransform="matrix(225.76,0,0,45.14,0,25.01)"><stop offset="0" style="stop-color:rgb(0,60,255);stop-opacity:1"/><stop offset="1" style="stop-color:rgb(85,51,144);stop-opacity:1"/></linearGradient>
        <linearGradient id="_Linear43" x1="0" y1="0" x2="1" y2="0" gradientUnits="userSpaceOnUse" gradientTransform="matrix(225.76,0,0,45.14,0,25.01)"><stop offset="0" style="stop-color:rgb(0,60,255);stop-opacity:1"/><stop offset="1" style="stop-color:rgb(85,51,144);stop-opacity:1"/></linearGradient>
    </defs>
</svg>
