<?xml version="1.0" encoding="utf-8"?>
<!-- Generator: Adobe Illustrator 22.1.0, SVG Export Plug-In . SVG Version: 6.00 Build 0)  -->
<svg version="1.1" id="Calque_1" xmlns="http://www.w3.org/2000/svg" xmlns:xlink="http://www.w3.org/1999/xlink" x="0px" y="0px"
	 viewBox="0 0 1037.6 1037.5" style="enable-background:new 0 0 1037.6 1037.5;" xml:space="preserve">
<style type="text/css">
	.st0{display:none;}
	.st1{fill:#000076;}
	.st2{fill:#FFFFFF;}
	.st3{fill:#0000C1;}
	.st4{fill:#0A003F;}
	.st5{fill:#0A0078;}
	.st6{fill:#00002F;}
	.st7{fill:#553390;}
	.st8{fill:#5544FF;}
</style>
<g id="reperes" class="st0">
</g>
<g id="reperes_centre_1_" class="st0">
</g>
<g id="tracé">
	<g>
		<path class="st1" d="M518.8,1037C232.6,1037,0.5,805,0.5,518.7S232.5,0.4,518.8,0.4"/>
		<path class="st2" d="M518.8,1037.5c-70,0-138-13.7-201.9-40.8c-61.8-26.1-117.3-63.5-164.9-111.2c-47.6-47.6-85-103.1-111.2-164.9
			C13.7,656.6,0,588.7,0,518.7s13.7-138,40.8-201.9C66.9,255,104.3,199.5,152,151.9c47.6-47.6,103.1-85,164.9-111.2
			C380.8,13.7,448.7,0,518.8,0v1C233.3,1,1,233.3,1,518.8s232.3,517.8,517.8,517.8V1037.5z"/>
	</g>
	<g>
		<path class="st3" d="M518.8,0.5c286.2,0,518.3,232,518.3,518.3S805,1037,518.8,1037"/>
		<path class="st2" d="M518.8,1037.5v-1c285.5,0,517.8-232.3,517.8-517.8S804.2,1,518.8,1V0c70,0,138,13.7,201.9,40.8
			C782.5,66.9,838,104.3,885.6,152c47.6,47.6,85,103.1,111.2,164.9c27.1,64,40.8,131.9,40.8,201.9s-13.7,138-40.8,201.9
			c-26.1,61.8-63.5,117.3-111.2,164.9c-47.6,47.6-103.1,85-164.9,111.2C656.7,1023.8,588.8,1037.5,518.8,1037.5z"/>
	</g>
	<polygon class="st4" points="162.9,405.5 489.8,217.7 489.8,97.3 61.2,345 62.2,346.7 59.7,346.7 59.7,690.8 62.1,690.8 
		61.2,692.3 489.8,940.2 489.8,819.8 162.9,631.8 	"/>
	<path class="st5" d="M700.2,380.9c-3.6,9.5-10.4,27-14,36.5c-38.5,100.2-70.8,184.4-109.3,284.7l-58.2,1.5V557.5l105.2-265.7
		L700.2,380.9z"/>
	<path class="st6" d="M340.1,380.9c3.6,9.5,10.4,27,14,36.5c38.5,100.2,70.8,184.4,109.3,284.7l55.3,1.5V557.5L416.4,291.8
		L340.1,380.9z"/>
	<path class="st7" d="M230.3,422.1c0,5.7,0,16.2,0,21.9c0,60,0,110.4,0,170.4l57.7,31.2V390.9L230.3,422.1z"/>
	<path class="st8" d="M807.7,422.2c0,5.7,0,16.2,0,21.9c0,60,0,110.4,0,170.4L750,645.7V391L807.7,422.2z"/>
	<polygon class="st5" points="875.6,405.5 548.8,217.7 548.8,97.3 977.3,345 976.3,346.7 978.8,346.7 978.8,690.8 976.4,690.8 
		977.3,692.3 548.8,940.2 548.8,819.8 875.6,631.8 	"/>
</g>
</svg>
