<?xml version="1.0" encoding="UTF-8" standalone="no"?>
<!DOCTYPE svg PUBLIC "-//W3C//DTD SVG 1.1//EN" "http://www.w3.org/Graphics/SVG/1.1/DTD/svg11.dtd">
<svg width="100%" height="100%" viewBox="0 0 92 92" version="1.1" xmlns="http://www.w3.org/2000/svg" xmlns:xlink="http://www.w3.org/1999/xlink" xml:space="preserve" xmlns:serif="http://www.serif.com/" style="fill-rule:evenodd;clip-rule:evenodd;stroke-linejoin:round;stroke-miterlimit:1.41421;">
    <g transform="matrix(1,0,0,1,-4.416,-4.417)">
        <g transform="matrix(1,0,0,1,-360,0)">
            <path d="M425.153,38.639C425.153,47.77 418.37,56.398 410.001,56.398C401.632,56.398 394.847,47.77 394.847,38.639C394.847,29.507 401.631,23.329 410.001,23.329C418.369,23.329 425.153,29.507 425.153,38.639Z" style="fill-rule:nonzero;"/>
        </g>
        <g transform="matrix(1,0,0,1,-360,0)">
            <path d="M410,4.417C384.865,4.417 364.416,24.866 364.416,50C364.416,75.134 384.865,95.584 410,95.584C435.135,95.584 455.583,75.135 455.583,50C455.583,24.865 435.135,4.417 410,4.417ZM436.924,78.98C436.017,70.016 431.089,62.297 424.03,57.845C420.477,62.016 415.625,64.731 410.271,64.731C404.825,64.731 399.893,61.921 396.327,57.626C389.078,62.042 383.994,69.862 383.069,78.975C375.293,71.743 370.416,61.433 370.416,50C370.416,28.173 388.173,10.417 410,10.417C431.826,10.417 449.583,28.174 449.583,50C449.583,61.436 444.703,71.748 436.924,78.98Z" style="fill-rule:nonzero;"/>
        </g>
    </g>
</svg>
