<?xml version="1.0" encoding="UTF-8" standalone="no"?>
<!-- Created with Inkscape (http://www.inkscape.org/) -->
<svg
   xmlns:svg="http://www.w3.org/2000/svg"
   xmlns="http://www.w3.org/2000/svg"
   version="1.0"
   width="317.15799"
   height="115.139"
   viewBox="0 0 317.158 115.139"
   id="Layer_1"
   xml:space="preserve"><defs
   id="defs277" /><g
   id="g236">
	<path
   d="M 0,28.919 C 4.08,27.659 4.5,24.539 4.5,19.319 L 4.5,8.1 C 4.5,3.24 7.799,0 9.6,0 L 13.979,0 L 13.979,4.439 L 11.58,4.439 C 9.42,4.439 9.42,6.24 9.42,9 L 9.42,20.34 C 9.42,27.36 5.64,30.36 4.86,30.839 C 5.64,31.318 9.42,34.318 9.42,41.399 L 9.42,52.678 C 9.42,55.438 9.42,57.239 11.58,57.239 L 13.979,57.239 L 13.979,61.678 L 9.6,61.678 C 7.8,61.678 4.5,58.438 4.5,53.578 L 4.5,42.418 C 4.5,37.139 4.08,34.02 0,32.759 L 0,28.919 z"
   id="path238" />
	<path
   d="M 44.82,22.5 L 44.94,22.5 C 46.92,19.799 49.5,18.299 52.98,18.299 C 60.78,18.299 62.58,23.94 62.58,30.539 L 62.58,47.278 L 57.78,47.278 L 57.78,31.379 C 57.78,26.819 57.42,22.739 51.841,22.739 C 45.241,22.739 44.821,28.859 44.821,33.898 L 44.821,47.278 L 40.021,47.278 L 40.021,19.08 L 44.821,19.08 L 44.821,22.5 L 44.82,22.5 z"
   id="path240" />
	<path
   d="M 69.18,33.238 C 69.18,24.959 75.72,18.299 83.999,18.299 C 92.278,18.299 98.818,24.959 98.818,33.238 C 98.818,41.518 92.218,48.058 83.999,48.058 C 75.78,48.058 69.18,41.519 69.18,33.238 z M 73.98,33.179 C 73.98,38.939 78.06,43.619 84,43.619 C 89.939,43.619 94.02,38.938 94.02,33.179 C 94.02,27.479 89.94,22.74 84,22.74 C 78.06,22.739 73.98,27.479 73.98,33.179 z"
   id="path242" />
	<path
   d="M 130.62,8.46 C 130.62,10.38 129.06,11.88 127.2,11.88 C 125.34,11.88 123.78,10.38 123.78,8.46 C 123.78,6.6 125.34,5.04 127.2,5.04 C 129.06,5.04 130.62,6.6 130.62,8.46 z M 129.6,47.278 L 124.8,47.278 L 124.8,19.08 L 129.6,19.08 L 129.6,47.278 z"
   id="path244" />
	<path
   d="M 144.419,22.139 L 144.539,22.139 C 146.039,19.799 148.439,18.299 151.319,18.299 C 154.619,18.299 157.619,20.039 159.119,22.98 C 160.799,19.86 164.158,18.299 167.578,18.299 C 174.778,18.299 176.578,24.18 176.578,30.119 L 176.578,47.278 L 171.778,47.278 L 171.778,30.898 C 171.778,27.239 171.539,22.739 166.619,22.739 C 161.099,22.739 160.499,28.079 160.499,32.339 L 160.499,47.278 L 155.699,47.278 L 155.699,31.258 C 155.699,27.779 155.279,22.738 150.659,22.738 C 145.019,22.738 144.42,28.438 144.42,32.698 L 144.42,47.277 L 139.62,47.277 L 139.62,19.08 L 144.42,19.08 L 144.42,22.139 L 144.419,22.139 z"
   id="path246" />
	<path
   d="M 211.438,47.278 L 206.638,47.278 L 206.638,43.379 L 206.518,43.379 C 204.058,46.498 200.758,48.059 196.798,48.059 C 188.519,48.059 183.299,41.039 183.299,33.239 C 183.299,25.2 188.399,18.3 196.859,18.3 C 200.699,18.3 204.178,20.101 206.518,23.101 L 206.638,23.101 L 206.638,19.081 L 211.438,19.081 L 211.438,47.278 z M 188.218,32.879 C 188.218,38.399 191.458,43.619 197.458,43.619 C 203.638,43.619 206.878,38.639 206.878,32.939 C 206.878,27.298 203.338,22.739 197.398,22.739 C 191.819,22.739 188.218,27.6 188.218,32.879 z"
   id="path248" />
	<path
   d="M 245.757,45.898 C 245.757,50.398 245.757,54.297 242.877,58.017 C 240.237,61.377 236.157,62.997 231.958,62.997 C 224.099,62.997 218.278,58.017 218.099,50.037 L 222.898,50.037 C 222.959,55.257 226.738,58.557 231.898,58.557 C 239.337,58.557 240.958,53.097 240.958,46.738 L 240.958,43.379 L 240.838,43.379 C 238.559,46.318 234.838,48.059 231.059,48.059 C 222.839,48.059 217.62,41.159 217.62,33.299 C 217.62,25.379 222.899,18.299 231.239,18.299 C 235.139,18.299 238.559,20.039 240.839,23.1 L 240.959,23.1 L 240.959,19.08 L 245.759,19.08 L 245.759,45.898 L 245.757,45.898 z M 222.539,32.879 C 222.539,38.399 225.779,43.619 231.779,43.619 C 237.959,43.619 241.198,38.639 241.198,32.939 C 241.198,27.298 237.658,22.739 231.719,22.739 C 226.138,22.739 222.539,27.6 222.539,32.879 z"
   id="path250" />
	<path
   d="M 257.518,34.199 C 257.578,39.418 261.298,43.619 266.757,43.619 C 270.837,43.619 273.477,41.158 275.337,37.799 L 279.417,40.139 C 276.717,45.178 272.157,48.059 266.397,48.059 C 257.997,48.059 252.597,41.639 252.597,33.539 C 252.597,25.199 257.457,18.299 266.276,18.299 C 275.337,18.299 280.135,25.799 279.656,34.199 L 257.518,34.199 z M 274.617,30.119 C 273.957,26.039 270.537,22.739 266.338,22.739 C 262.198,22.739 258.359,26.039 257.758,30.119 L 274.617,30.119 z"
   id="path252" />
	<path
   d="M 317.158,32.759 C 313.078,34.02 312.658,37.139 312.658,42.418 L 312.658,53.578 C 312.658,58.437 309.357,61.678 307.558,61.678 L 303.177,61.678 L 303.177,57.239 L 305.577,57.239 C 307.737,57.239 307.737,55.438 307.737,52.678 L 307.737,41.398 C 307.737,34.318 311.516,31.318 312.297,30.838 C 311.517,30.359 307.737,27.359 307.737,20.339 L 307.737,9 C 307.737,6.24 307.737,4.439 305.577,4.439 L 303.177,4.439 L 303.177,0 L 307.558,0 C 309.357,0 312.658,3.24 312.658,8.1 L 312.658,19.32 C 312.658,24.54 313.078,27.66 317.158,28.92 L 317.158,32.759 z"
   id="path254" />
	<path
   d="M 88.304,97.379 L 88.244,97.379 C 87.134,95.969 85.754,95.009 83.864,95.009 C 80.954,95.009 78.885,97.408 78.885,100.229 C 78.885,103.019 80.805,105.449 83.744,105.449 C 85.754,105.449 87.164,104.55 88.334,103.019 L 88.394,103.019 L 88.394,106.229 C 87.014,107.159 85.604,107.668 83.924,107.668 C 79.664,107.668 76.424,104.488 76.424,100.229 C 76.424,96.03 79.814,92.79 83.954,92.79 C 85.484,92.79 87.044,93.3 88.304,94.2 L 88.304,97.379 z"
   id="path256" />
	<path
   d="M 90.854,100.259 C 90.854,96.119 94.124,92.789 98.264,92.789 C 102.404,92.789 105.674,96.119 105.674,100.259 C 105.674,104.399 102.374,107.668 98.264,107.668 C 94.154,107.668 90.854,104.398 90.854,100.259 z M 93.254,100.229 C 93.254,103.109 95.294,105.449 98.264,105.449 C 101.234,105.449 103.274,103.109 103.274,100.229 C 103.274,97.379 101.234,95.009 98.264,95.009 C 95.294,95.009 93.254,97.379 93.254,100.229 z"
   id="path258" />
	<path
   d="M 111.374,94.709 L 111.434,94.709 C 112.184,93.539 113.384,92.789 114.824,92.789 C 116.474,92.789 117.974,93.658 118.723,95.129 C 119.563,93.568 121.243,92.789 122.953,92.789 C 126.553,92.789 127.453,95.728 127.453,98.699 L 127.453,107.278 L 125.053,107.278 L 125.053,99.089 C 125.053,97.259 124.933,95.009 122.473,95.009 C 119.713,95.009 119.413,97.679 119.413,99.809 L 119.413,107.279 L 117.014,107.279 L 117.014,99.269 C 117.014,97.53 116.804,95.009 114.494,95.009 C 111.674,95.009 111.374,97.86 111.374,99.988 L 111.374,107.278 L 108.974,107.278 L 108.974,93.178 L 111.374,93.178 L 111.374,94.709 z"
   id="path260" />
	<path
   d="M 135.374,87.869 C 135.374,88.829 134.594,89.579 133.664,89.579 C 132.734,89.579 131.954,88.829 131.954,87.869 C 131.954,86.939 132.734,86.159 133.664,86.159 C 134.594,86.159 135.374,86.939 135.374,87.869 z M 134.864,107.278 L 132.464,107.278 L 132.464,93.178 L 134.864,93.178 L 134.864,107.278 z"
   id="path262" />
	<path
   d="M 142.273,94.889 L 142.333,94.889 C 143.323,93.539 144.613,92.789 146.353,92.789 C 150.253,92.789 151.153,95.609 151.153,98.908 L 151.153,107.278 L 148.753,107.278 L 148.753,99.328 C 148.753,97.049 148.573,95.009 145.783,95.009 C 142.483,95.009 142.273,98.069 142.273,100.588 L 142.273,107.278 L 139.873,107.278 L 139.873,93.178 L 142.273,93.178 L 142.273,94.889 L 142.273,94.889 z"
   id="path264" />
	<path
   d="M 168.433,106.588 C 168.433,108.838 168.433,110.788 166.994,112.649 C 165.674,114.329 163.634,115.139 161.533,115.139 C 157.604,115.139 154.694,112.649 154.604,108.659 L 157.004,108.659 C 157.034,111.268 158.924,112.919 161.504,112.919 C 165.224,112.919 166.033,110.189 166.033,107.009 L 166.033,105.329 L 165.973,105.329 C 164.833,106.8 162.973,107.669 161.083,107.669 C 156.973,107.669 154.363,104.22 154.363,100.29 C 154.363,96.329 157.003,92.79 161.173,92.79 C 163.122,92.79 164.833,93.659 165.973,95.19 L 166.033,95.19 L 166.033,93.179 L 168.433,93.179 L 168.433,106.588 L 168.433,106.588 z M 156.823,100.078 C 156.823,102.838 158.443,105.448 161.443,105.448 C 164.533,105.448 166.153,102.959 166.153,100.108 C 166.153,97.289 164.383,95.008 161.414,95.008 C 158.624,95.009 156.823,97.438 156.823,100.078 z"
   id="path266" />
	<path
   d="M 188.052,96.449 C 187.722,95.699 187.002,95.009 186.132,95.009 C 185.292,95.009 184.392,95.669 184.392,96.569 C 184.392,97.86 186.013,98.34 187.663,99.03 C 189.312,99.719 190.933,100.71 190.933,103.079 C 190.933,105.749 188.774,107.669 186.163,107.669 C 183.793,107.669 181.934,106.319 181.184,104.1 L 183.313,103.2 C 183.914,104.52 184.604,105.45 186.194,105.45 C 187.483,105.45 188.473,104.58 188.473,103.291 C 188.473,100.141 182.114,101.221 182.114,96.781 C 182.114,94.41 184.034,92.791 186.313,92.791 C 187.934,92.791 189.433,93.931 190.063,95.4 L 188.052,96.449 z"
   id="path268" />
	<path
   d="M 193.062,100.259 C 193.062,96.119 196.333,92.789 200.472,92.789 C 204.611,92.789 207.882,96.119 207.882,100.259 C 207.882,104.399 204.581,107.668 200.472,107.668 C 196.363,107.668 193.062,104.398 193.062,100.259 z M 195.462,100.229 C 195.462,103.109 197.502,105.449 200.472,105.449 C 203.442,105.449 205.482,103.109 205.482,100.229 C 205.482,97.379 203.442,95.009 200.472,95.009 C 197.502,95.009 195.462,97.379 195.462,100.229 z"
   id="path270" />
	<path
   d="M 209.922,100.259 C 209.922,96.119 213.193,92.789 217.331,92.789 C 221.472,92.789 224.741,96.119 224.741,100.259 C 224.741,104.399 221.441,107.668 217.331,107.668 C 213.222,107.668 209.922,104.398 209.922,100.259 z M 212.322,100.229 C 212.322,103.109 214.363,105.449 217.332,105.449 C 220.303,105.449 222.342,103.109 222.342,100.229 C 222.342,97.379 220.303,95.009 217.332,95.009 C 214.363,95.009 212.322,97.379 212.322,100.229 z"
   id="path272" />
	<path
   d="M 230.442,94.889 L 230.502,94.889 C 231.492,93.539 232.782,92.789 234.523,92.789 C 238.422,92.789 239.323,95.609 239.323,98.908 L 239.323,107.278 L 236.923,107.278 L 236.923,99.328 C 236.923,97.049 236.743,95.009 233.953,95.009 C 230.653,95.009 230.443,98.069 230.443,100.588 L 230.443,107.278 L 228.044,107.278 L 228.044,93.178 L 230.443,93.178 L 230.443,94.889 L 230.442,94.889 z"
   id="path274" />
</g>
</svg>